M48
;DRILL file {KiCad 4.0.2+dfsg1-stable} date Thu 25 May 2017 10:33:26 AM CEST
;FORMAT={-:-/ absolute / inch / decimal}
FMAT,2
INCH,TZ
T1C0.016
T2C0.030
T3C0.031
T4C0.032
T5C0.032
T6C0.039
T7C0.039
T8C0.040
T9C0.047
T10C0.071
T11C0.098
T12C0.138
%
G90
G05
M72
T1
X5.4537Y-3.248
X5.5443Y-2.8543
X5.81Y-3.315
X5.9385Y-4.0844
X6.Y-3.325
X6.05Y-1.95
T2
X6.2598Y-4.35
X6.5827Y-4.35
T3
X5.6Y-2.
X5.6Y-2.1969
X5.85Y-2.9016
X5.85Y-3.
X5.8661Y-3.1496
X6.05Y-2.85
X6.05Y-2.95
X6.05Y-3.05
X6.05Y-3.15
X6.122Y-3.3071
X6.225Y-3.8266
X6.225Y-3.925
X6.2402Y-4.0551
X6.3189Y-3.3071
X6.3425Y-4.35
X6.35Y-2.85
X6.35Y-2.95
X6.35Y-3.05
X6.35Y-3.15
X6.4213Y-4.35
X6.5Y-4.35
T4
X5.7677Y-3.1496
X6.1417Y-4.0551
T5
X6.278Y-1.7126
X6.378Y-1.7126
X6.478Y-1.7126
T6
X5.4Y-2.6
X5.4Y-2.7
X5.4Y-2.8
X5.4Y-2.9
X5.4Y-3.
X5.4Y-3.1
X5.4Y-3.2
X5.4Y-3.3
X5.4Y-3.4
X5.4Y-3.5
X5.4Y-3.6
X5.4Y-3.7
X5.4Y-3.8
X5.4Y-3.9
X5.4Y-4.
X6.15Y-1.85
X6.5Y-2.6
X6.5Y-2.7
X6.5Y-2.8
X6.5Y-2.9
X6.5Y-3.
X6.5Y-3.1
X6.5Y-3.2
X6.5Y-3.3
X6.5Y-3.4
X6.5Y-3.5
X6.5Y-3.6
X6.5Y-3.7
X6.5Y-3.8
X6.5Y-3.9
X6.5Y-4.
X6.55Y-1.85
T7
X5.4102Y-2.4016
X5.6Y-1.85
X5.8102Y-2.4016
X6.Y-1.85
X6.45Y-2.
X6.45Y-2.4
X6.6339Y-2.1425
X6.6339Y-2.5425
X6.6339Y-3.0055
X6.6339Y-3.4055
X6.7913Y-2.1425
X6.7913Y-2.5425
T8
X5.5315Y-4.35
X5.6315Y-4.35
X6.6339Y-2.774
X6.6339Y-2.874
T9
X5.6102Y-2.6173
X5.6102Y-2.7173
X5.6102Y-2.8173
X5.6102Y-2.9173
X5.6102Y-3.0173
X5.6102Y-3.1173
X5.6102Y-3.2173
X5.6102Y-3.3173
X5.6102Y-3.4173
X5.6102Y-3.5173
X5.6102Y-3.6173
X5.6102Y-3.7173
X5.6102Y-3.8173
X5.6102Y-3.9173
T10
X5.2362Y-1.9921
X5.2362Y-2.2835
X5.2362Y-4.0157
X5.2362Y-4.3071
T11
X5.6102Y-1.1811
X5.6102Y-4.1338
X6.8307Y-1.1811
X6.8307Y-4.1338
T12
X5.1772Y-1.4764
X5.1772Y-3.8386
T0
M30
