G04 #@! TF.FileFunction,Legend,Bot*
%FSLAX46Y46*%
G04 Gerber Fmt 4.6, Leading zero omitted, Abs format (unit mm)*
G04 Created by KiCad (PCBNEW 4.0.2+dfsg1-stable) date Thu 25 May 2017 10:32:05 AM CEST*
%MOMM*%
G01*
G04 APERTURE LIST*
%ADD10C,0.100000*%
%ADD11C,0.300000*%
%ADD12C,0.150000*%
%ADD13C,0.254000*%
%ADD14C,1.998980*%
%ADD15C,2.000000*%
%ADD16O,3.800000X3.800000*%
%ADD17R,1.300000X1.300000*%
%ADD18C,1.300000*%
%ADD19O,1.000000X1.600000*%
%ADD20C,1.524000*%
%ADD21O,2.300000X1.600000*%
%ADD22R,2.000000X2.000000*%
%ADD23R,2.032000X2.032000*%
%ADD24O,2.032000X2.032000*%
%ADD25O,2.600000X1.800000*%
%ADD26C,3.000000*%
G04 APERTURE END LIST*
D10*
D11*
X140547620Y-46250000D02*
X140309525Y-46369048D01*
X139952382Y-46369048D01*
X139595239Y-46250000D01*
X139357144Y-46011905D01*
X139238096Y-45773810D01*
X139119048Y-45297619D01*
X139119048Y-44940476D01*
X139238096Y-44464286D01*
X139357144Y-44226190D01*
X139595239Y-43988095D01*
X139952382Y-43869048D01*
X140190477Y-43869048D01*
X140547620Y-43988095D01*
X140666668Y-44107143D01*
X140666668Y-44940476D01*
X140190477Y-44940476D01*
X142690477Y-43988095D02*
X142452382Y-43869048D01*
X141976191Y-43869048D01*
X141738096Y-43988095D01*
X141619048Y-44226190D01*
X141619048Y-45178571D01*
X141738096Y-45416667D01*
X141976191Y-45535714D01*
X142452382Y-45535714D01*
X142690477Y-45416667D01*
X142809525Y-45178571D01*
X142809525Y-44940476D01*
X141619048Y-44702381D01*
X143880953Y-43869048D02*
X143880953Y-45535714D01*
X143880953Y-46369048D02*
X143761905Y-46250000D01*
X143880953Y-46130952D01*
X144000001Y-46250000D01*
X143880953Y-46369048D01*
X143880953Y-46130952D01*
X146142858Y-45535714D02*
X146142858Y-43511905D01*
X146023810Y-43273810D01*
X145904762Y-43154762D01*
X145666667Y-43035714D01*
X145309524Y-43035714D01*
X145071429Y-43154762D01*
X146142858Y-43988095D02*
X145904762Y-43869048D01*
X145428572Y-43869048D01*
X145190477Y-43988095D01*
X145071429Y-44107143D01*
X144952381Y-44345238D01*
X144952381Y-45059524D01*
X145071429Y-45297619D01*
X145190477Y-45416667D01*
X145428572Y-45535714D01*
X145904762Y-45535714D01*
X146142858Y-45416667D01*
X148285715Y-43988095D02*
X148047620Y-43869048D01*
X147571429Y-43869048D01*
X147333334Y-43988095D01*
X147214286Y-44226190D01*
X147214286Y-45178571D01*
X147333334Y-45416667D01*
X147571429Y-45535714D01*
X148047620Y-45535714D01*
X148285715Y-45416667D01*
X148404763Y-45178571D01*
X148404763Y-44940476D01*
X147214286Y-44702381D01*
X149476191Y-43869048D02*
X149476191Y-45535714D01*
X149476191Y-45059524D02*
X149595239Y-45297619D01*
X149714286Y-45416667D01*
X149952382Y-45535714D01*
X150190477Y-45535714D01*
X151023810Y-45535714D02*
X151023810Y-43392857D01*
X150904762Y-43154762D01*
X150666667Y-43035714D01*
X150547620Y-43035714D01*
X151023810Y-46369048D02*
X150904762Y-46250000D01*
X151023810Y-46130952D01*
X151142858Y-46250000D01*
X151023810Y-46369048D01*
X151023810Y-46130952D01*
X153166667Y-43988095D02*
X152928572Y-43869048D01*
X152452381Y-43869048D01*
X152214286Y-43988095D01*
X152095238Y-44226190D01*
X152095238Y-45178571D01*
X152214286Y-45416667D01*
X152452381Y-45535714D01*
X152928572Y-45535714D01*
X153166667Y-45416667D01*
X153285715Y-45178571D01*
X153285715Y-44940476D01*
X152095238Y-44702381D01*
X154119048Y-45535714D02*
X154714286Y-43869048D01*
X155309524Y-45535714D01*
X158047619Y-43988095D02*
X158285715Y-43869048D01*
X158761905Y-43869048D01*
X159000000Y-43988095D01*
X159119048Y-44226190D01*
X159119048Y-44345238D01*
X159000000Y-44583333D01*
X158761905Y-44702381D01*
X158404762Y-44702381D01*
X158166667Y-44821429D01*
X158047619Y-45059524D01*
X158047619Y-45178571D01*
X158166667Y-45416667D01*
X158404762Y-45535714D01*
X158761905Y-45535714D01*
X159000000Y-45416667D01*
X159833334Y-45535714D02*
X160785715Y-45535714D01*
X160190477Y-46369048D02*
X160190477Y-44226190D01*
X160309525Y-43988095D01*
X160547620Y-43869048D01*
X160785715Y-43869048D01*
X162571429Y-43988095D02*
X162333334Y-43869048D01*
X161857143Y-43869048D01*
X161619048Y-43988095D01*
X161500000Y-44226190D01*
X161500000Y-45178571D01*
X161619048Y-45416667D01*
X161857143Y-45535714D01*
X162333334Y-45535714D01*
X162571429Y-45416667D01*
X162690477Y-45178571D01*
X162690477Y-44940476D01*
X161500000Y-44702381D01*
X163523810Y-45535714D02*
X164119048Y-43869048D01*
X164714286Y-45535714D01*
X166619048Y-43988095D02*
X166380953Y-43869048D01*
X165904762Y-43869048D01*
X165666667Y-43988095D01*
X165547619Y-44226190D01*
X165547619Y-45178571D01*
X165666667Y-45416667D01*
X165904762Y-45535714D01*
X166380953Y-45535714D01*
X166619048Y-45416667D01*
X166738096Y-45178571D01*
X166738096Y-44940476D01*
X165547619Y-44702381D01*
X168880953Y-43988095D02*
X168642857Y-43869048D01*
X168166667Y-43869048D01*
X167928572Y-43988095D01*
X167809524Y-44107143D01*
X167690476Y-44345238D01*
X167690476Y-45059524D01*
X167809524Y-45297619D01*
X167928572Y-45416667D01*
X168166667Y-45535714D01*
X168642857Y-45535714D01*
X168880953Y-45416667D01*
X135285714Y-39992857D02*
X135500000Y-39921429D01*
X135857143Y-39921429D01*
X136000000Y-39992857D01*
X136071429Y-40064286D01*
X136142857Y-40207143D01*
X136142857Y-40350000D01*
X136071429Y-40492857D01*
X136000000Y-40564286D01*
X135857143Y-40635714D01*
X135571429Y-40707143D01*
X135428571Y-40778571D01*
X135357143Y-40850000D01*
X135285714Y-40992857D01*
X135285714Y-41135714D01*
X135357143Y-41278571D01*
X135428571Y-41350000D01*
X135571429Y-41421429D01*
X135928571Y-41421429D01*
X136142857Y-41350000D01*
X137357142Y-39992857D02*
X137214285Y-39921429D01*
X136928571Y-39921429D01*
X136785714Y-39992857D01*
X136714285Y-40135714D01*
X136714285Y-40707143D01*
X136785714Y-40850000D01*
X136928571Y-40921429D01*
X137214285Y-40921429D01*
X137357142Y-40850000D01*
X137428571Y-40707143D01*
X137428571Y-40564286D01*
X136714285Y-40421429D01*
X137999999Y-39992857D02*
X138142856Y-39921429D01*
X138428571Y-39921429D01*
X138571428Y-39992857D01*
X138642856Y-40135714D01*
X138642856Y-40207143D01*
X138571428Y-40350000D01*
X138428571Y-40421429D01*
X138214285Y-40421429D01*
X138071428Y-40492857D01*
X137999999Y-40635714D01*
X137999999Y-40707143D01*
X138071428Y-40850000D01*
X138214285Y-40921429D01*
X138428571Y-40921429D01*
X138571428Y-40850000D01*
X139071428Y-40921429D02*
X139642857Y-40921429D01*
X139285714Y-41421429D02*
X139285714Y-40135714D01*
X139357142Y-39992857D01*
X139500000Y-39921429D01*
X139642857Y-39921429D01*
X140785714Y-39921429D02*
X140785714Y-40707143D01*
X140714285Y-40850000D01*
X140571428Y-40921429D01*
X140285714Y-40921429D01*
X140142857Y-40850000D01*
X140785714Y-39992857D02*
X140642857Y-39921429D01*
X140285714Y-39921429D01*
X140142857Y-39992857D01*
X140071428Y-40135714D01*
X140071428Y-40278571D01*
X140142857Y-40421429D01*
X140285714Y-40492857D01*
X140642857Y-40492857D01*
X140785714Y-40564286D01*
X141357143Y-40921429D02*
X141714286Y-39921429D01*
X142071428Y-40921429D01*
X142642857Y-39921429D02*
X142642857Y-40921429D01*
X142642857Y-41421429D02*
X142571428Y-41350000D01*
X142642857Y-41278571D01*
X142714285Y-41350000D01*
X142642857Y-41421429D01*
X142642857Y-41278571D01*
X143571429Y-39921429D02*
X143428571Y-39992857D01*
X143357143Y-40135714D01*
X143357143Y-41421429D01*
X144142857Y-40064286D02*
X144214285Y-39992857D01*
X144142857Y-39921429D01*
X144071428Y-39992857D01*
X144142857Y-40064286D01*
X144142857Y-39921429D01*
X144142857Y-40850000D02*
X144214285Y-40778571D01*
X144142857Y-40707143D01*
X144071428Y-40778571D01*
X144142857Y-40850000D01*
X144142857Y-40707143D01*
X135357143Y-35121429D02*
X135357143Y-36621429D01*
X135928571Y-36621429D01*
X136071429Y-36550000D01*
X136142857Y-36478571D01*
X136214286Y-36335714D01*
X136214286Y-36121429D01*
X136142857Y-35978571D01*
X136071429Y-35907143D01*
X135928571Y-35835714D01*
X135357143Y-35835714D01*
X137071429Y-35121429D02*
X136928571Y-35192857D01*
X136857143Y-35264286D01*
X136785714Y-35407143D01*
X136785714Y-35835714D01*
X136857143Y-35978571D01*
X136928571Y-36050000D01*
X137071429Y-36121429D01*
X137285714Y-36121429D01*
X137428571Y-36050000D01*
X137500000Y-35978571D01*
X137571429Y-35835714D01*
X137571429Y-35407143D01*
X137500000Y-35264286D01*
X137428571Y-35192857D01*
X137285714Y-35121429D01*
X137071429Y-35121429D01*
X138428572Y-35121429D02*
X138285714Y-35192857D01*
X138214286Y-35335714D01*
X138214286Y-36621429D01*
X139571428Y-35192857D02*
X139428571Y-35121429D01*
X139142857Y-35121429D01*
X139000000Y-35192857D01*
X138928571Y-35335714D01*
X138928571Y-35907143D01*
X139000000Y-36050000D01*
X139142857Y-36121429D01*
X139428571Y-36121429D01*
X139571428Y-36050000D01*
X139642857Y-35907143D01*
X139642857Y-35764286D01*
X138928571Y-35621429D01*
X140071428Y-36121429D02*
X140642857Y-36121429D01*
X140285714Y-36621429D02*
X140285714Y-35335714D01*
X140357142Y-35192857D01*
X140500000Y-35121429D01*
X140642857Y-35121429D01*
X141142857Y-36121429D02*
X141142857Y-35121429D01*
X141142857Y-35978571D02*
X141214285Y-36050000D01*
X141357143Y-36121429D01*
X141571428Y-36121429D01*
X141714285Y-36050000D01*
X141785714Y-35907143D01*
X141785714Y-35121429D01*
X142500000Y-35121429D02*
X142500000Y-36121429D01*
X142500000Y-36621429D02*
X142428571Y-36550000D01*
X142500000Y-36478571D01*
X142571428Y-36550000D01*
X142500000Y-36621429D01*
X142500000Y-36478571D01*
X144142857Y-36121429D02*
X144714286Y-36121429D01*
X144357143Y-36621429D02*
X144357143Y-35335714D01*
X144428571Y-35192857D01*
X144571429Y-35121429D01*
X144714286Y-35121429D01*
X145857143Y-35121429D02*
X145857143Y-35907143D01*
X145785714Y-36050000D01*
X145642857Y-36121429D01*
X145357143Y-36121429D01*
X145214286Y-36050000D01*
X145857143Y-35192857D02*
X145714286Y-35121429D01*
X145357143Y-35121429D01*
X145214286Y-35192857D01*
X145142857Y-35335714D01*
X145142857Y-35478571D01*
X145214286Y-35621429D01*
X145357143Y-35692857D01*
X145714286Y-35692857D01*
X145857143Y-35764286D01*
X146571429Y-35121429D02*
X146571429Y-36621429D01*
X146571429Y-36050000D02*
X146714286Y-36121429D01*
X147000000Y-36121429D01*
X147142857Y-36050000D01*
X147214286Y-35978571D01*
X147285715Y-35835714D01*
X147285715Y-35407143D01*
X147214286Y-35264286D01*
X147142857Y-35192857D01*
X147000000Y-35121429D01*
X146714286Y-35121429D01*
X146571429Y-35192857D01*
X148142858Y-35121429D02*
X148000000Y-35192857D01*
X147928572Y-35264286D01*
X147857143Y-35407143D01*
X147857143Y-35835714D01*
X147928572Y-35978571D01*
X148000000Y-36050000D01*
X148142858Y-36121429D01*
X148357143Y-36121429D01*
X148500000Y-36050000D01*
X148571429Y-35978571D01*
X148642858Y-35835714D01*
X148642858Y-35407143D01*
X148571429Y-35264286D01*
X148500000Y-35192857D01*
X148357143Y-35121429D01*
X148142858Y-35121429D01*
X149285715Y-35121429D02*
X149285715Y-36121429D01*
X149285715Y-35835714D02*
X149357143Y-35978571D01*
X149428572Y-36050000D01*
X149571429Y-36121429D01*
X149714286Y-36121429D01*
X151357143Y-35121429D02*
X151357143Y-36121429D01*
X151357143Y-36621429D02*
X151285714Y-36550000D01*
X151357143Y-36478571D01*
X151428571Y-36550000D01*
X151357143Y-36621429D01*
X151357143Y-36478571D01*
X152071429Y-36121429D02*
X152071429Y-35121429D01*
X152071429Y-35978571D02*
X152142857Y-36050000D01*
X152285715Y-36121429D01*
X152500000Y-36121429D01*
X152642857Y-36050000D01*
X152714286Y-35907143D01*
X152714286Y-35121429D01*
X153642858Y-35121429D02*
X153500000Y-35192857D01*
X153428572Y-35264286D01*
X153357143Y-35407143D01*
X153357143Y-35835714D01*
X153428572Y-35978571D01*
X153500000Y-36050000D01*
X153642858Y-36121429D01*
X153857143Y-36121429D01*
X154000000Y-36050000D01*
X154071429Y-35978571D01*
X154142858Y-35835714D01*
X154142858Y-35407143D01*
X154071429Y-35264286D01*
X154000000Y-35192857D01*
X153857143Y-35121429D01*
X153642858Y-35121429D01*
X154642858Y-36121429D02*
X155000001Y-35121429D01*
X155357143Y-36121429D01*
X156571429Y-35121429D02*
X156571429Y-35907143D01*
X156500000Y-36050000D01*
X156357143Y-36121429D01*
X156071429Y-36121429D01*
X155928572Y-36050000D01*
X156571429Y-35192857D02*
X156428572Y-35121429D01*
X156071429Y-35121429D01*
X155928572Y-35192857D01*
X155857143Y-35335714D01*
X155857143Y-35478571D01*
X155928572Y-35621429D01*
X156071429Y-35692857D01*
X156428572Y-35692857D01*
X156571429Y-35764286D01*
X157071429Y-36121429D02*
X157642858Y-36121429D01*
X157285715Y-36621429D02*
X157285715Y-35335714D01*
X157357143Y-35192857D01*
X157500001Y-35121429D01*
X157642858Y-35121429D01*
X158142858Y-35121429D02*
X158142858Y-36121429D01*
X158142858Y-36621429D02*
X158071429Y-36550000D01*
X158142858Y-36478571D01*
X158214286Y-36550000D01*
X158142858Y-36621429D01*
X158142858Y-36478571D01*
X158714287Y-36121429D02*
X159071430Y-35121429D01*
X159428572Y-36121429D01*
X160000001Y-36121429D02*
X160000001Y-35121429D01*
X160000001Y-35978571D02*
X160071429Y-36050000D01*
X160214287Y-36121429D01*
X160428572Y-36121429D01*
X160571429Y-36050000D01*
X160642858Y-35907143D01*
X160642858Y-35121429D01*
X161357144Y-35121429D02*
X161357144Y-36121429D01*
X161357144Y-36621429D02*
X161285715Y-36550000D01*
X161357144Y-36478571D01*
X161428572Y-36550000D01*
X161357144Y-36621429D01*
X161357144Y-36478571D01*
X162071430Y-35121429D02*
X162071430Y-36621429D01*
X162714287Y-35121429D02*
X162714287Y-35907143D01*
X162642858Y-36050000D01*
X162500001Y-36121429D01*
X162285716Y-36121429D01*
X162142858Y-36050000D01*
X162071430Y-35978571D01*
X164357144Y-36121429D02*
X164928573Y-36121429D01*
X164571430Y-36621429D02*
X164571430Y-35335714D01*
X164642858Y-35192857D01*
X164785716Y-35121429D01*
X164928573Y-35121429D01*
X166000001Y-35192857D02*
X165857144Y-35121429D01*
X165571430Y-35121429D01*
X165428573Y-35192857D01*
X165357144Y-35335714D01*
X165357144Y-35907143D01*
X165428573Y-36050000D01*
X165571430Y-36121429D01*
X165857144Y-36121429D01*
X166000001Y-36050000D01*
X166071430Y-35907143D01*
X166071430Y-35764286D01*
X165357144Y-35621429D01*
X166714287Y-35121429D02*
X166714287Y-36621429D01*
X167357144Y-35121429D02*
X167357144Y-35907143D01*
X167285715Y-36050000D01*
X167142858Y-36121429D01*
X166928573Y-36121429D01*
X166785715Y-36050000D01*
X166714287Y-35978571D01*
X168071430Y-36121429D02*
X168071430Y-35121429D01*
X168071430Y-35978571D02*
X168142858Y-36050000D01*
X168285716Y-36121429D01*
X168500001Y-36121429D01*
X168642858Y-36050000D01*
X168714287Y-35907143D01*
X168714287Y-35121429D01*
X169642859Y-35121429D02*
X169500001Y-35192857D01*
X169428573Y-35264286D01*
X169357144Y-35407143D01*
X169357144Y-35835714D01*
X169428573Y-35978571D01*
X169500001Y-36050000D01*
X169642859Y-36121429D01*
X169857144Y-36121429D01*
X170000001Y-36050000D01*
X170071430Y-35978571D01*
X170142859Y-35835714D01*
X170142859Y-35407143D01*
X170071430Y-35264286D01*
X170000001Y-35192857D01*
X169857144Y-35121429D01*
X169642859Y-35121429D01*
X171000002Y-35121429D02*
X170857144Y-35192857D01*
X170785716Y-35335714D01*
X170785716Y-36621429D01*
X171785716Y-35121429D02*
X171642858Y-35192857D01*
X171571430Y-35264286D01*
X171500001Y-35407143D01*
X171500001Y-35835714D01*
X171571430Y-35978571D01*
X171642858Y-36050000D01*
X171785716Y-36121429D01*
X172000001Y-36121429D01*
X172142858Y-36050000D01*
X172214287Y-35978571D01*
X172285716Y-35835714D01*
X172285716Y-35407143D01*
X172214287Y-35264286D01*
X172142858Y-35192857D01*
X172000001Y-35121429D01*
X171785716Y-35121429D01*
X173571430Y-36121429D02*
X173571430Y-34907143D01*
X173500001Y-34764286D01*
X173428573Y-34692857D01*
X173285716Y-34621429D01*
X173071430Y-34621429D01*
X172928573Y-34692857D01*
X173571430Y-35192857D02*
X173428573Y-35121429D01*
X173142859Y-35121429D01*
X173000001Y-35192857D01*
X172928573Y-35264286D01*
X172857144Y-35407143D01*
X172857144Y-35835714D01*
X172928573Y-35978571D01*
X173000001Y-36050000D01*
X173142859Y-36121429D01*
X173428573Y-36121429D01*
X173571430Y-36050000D01*
X174285716Y-35121429D02*
X174285716Y-36121429D01*
X174285716Y-36621429D02*
X174214287Y-36550000D01*
X174285716Y-36478571D01*
X174357144Y-36550000D01*
X174285716Y-36621429D01*
X174285716Y-36478571D01*
X175000002Y-36121429D02*
X175000002Y-34835714D01*
X174928573Y-34692857D01*
X174785716Y-34621429D01*
X174714288Y-34621429D01*
X175000002Y-36621429D02*
X174928573Y-36550000D01*
X175000002Y-36478571D01*
X175071430Y-36550000D01*
X175000002Y-36621429D01*
X175000002Y-36478571D01*
X135857143Y-33507143D02*
X135357143Y-33507143D01*
X135357143Y-32721429D02*
X135357143Y-34221429D01*
X136071429Y-34221429D01*
X137285714Y-32721429D02*
X137285714Y-33507143D01*
X137214285Y-33650000D01*
X137071428Y-33721429D01*
X136785714Y-33721429D01*
X136642857Y-33650000D01*
X137285714Y-32792857D02*
X137142857Y-32721429D01*
X136785714Y-32721429D01*
X136642857Y-32792857D01*
X136571428Y-32935714D01*
X136571428Y-33078571D01*
X136642857Y-33221429D01*
X136785714Y-33292857D01*
X137142857Y-33292857D01*
X137285714Y-33364286D01*
X138000000Y-32721429D02*
X138000000Y-34221429D01*
X138142857Y-33292857D02*
X138571428Y-32721429D01*
X138571428Y-33721429D02*
X138000000Y-33150000D01*
X139857143Y-33721429D02*
X139857143Y-32721429D01*
X139214286Y-33721429D02*
X139214286Y-32935714D01*
X139285714Y-32792857D01*
X139428572Y-32721429D01*
X139642857Y-32721429D01*
X139785714Y-32792857D01*
X139857143Y-32864286D01*
X140785715Y-32721429D02*
X140642857Y-32792857D01*
X140571429Y-32935714D01*
X140571429Y-34221429D01*
X141142857Y-33721429D02*
X141714286Y-33721429D01*
X141357143Y-34221429D02*
X141357143Y-32935714D01*
X141428571Y-32792857D01*
X141571429Y-32721429D01*
X141714286Y-32721429D01*
X142785714Y-32792857D02*
X142642857Y-32721429D01*
X142357143Y-32721429D01*
X142214286Y-32792857D01*
X142142857Y-32935714D01*
X142142857Y-33507143D01*
X142214286Y-33650000D01*
X142357143Y-33721429D01*
X142642857Y-33721429D01*
X142785714Y-33650000D01*
X142857143Y-33507143D01*
X142857143Y-33364286D01*
X142142857Y-33221429D01*
X143285714Y-33721429D02*
X143857143Y-33721429D01*
X143500000Y-34221429D02*
X143500000Y-32935714D01*
X143571428Y-32792857D01*
X143714286Y-32721429D01*
X143857143Y-32721429D01*
X145000000Y-32721429D02*
X145000000Y-33507143D01*
X144928571Y-33650000D01*
X144785714Y-33721429D01*
X144500000Y-33721429D01*
X144357143Y-33650000D01*
X145000000Y-32792857D02*
X144857143Y-32721429D01*
X144500000Y-32721429D01*
X144357143Y-32792857D01*
X144285714Y-32935714D01*
X144285714Y-33078571D01*
X144357143Y-33221429D01*
X144500000Y-33292857D01*
X144857143Y-33292857D01*
X145000000Y-33364286D01*
X146714286Y-33721429D02*
X147500000Y-33721429D01*
X146714286Y-32721429D01*
X147500000Y-32721429D01*
X148714286Y-32721429D02*
X148714286Y-33507143D01*
X148642857Y-33650000D01*
X148500000Y-33721429D01*
X148214286Y-33721429D01*
X148071429Y-33650000D01*
X148714286Y-32792857D02*
X148571429Y-32721429D01*
X148214286Y-32721429D01*
X148071429Y-32792857D01*
X148000000Y-32935714D01*
X148000000Y-33078571D01*
X148071429Y-33221429D01*
X148214286Y-33292857D01*
X148571429Y-33292857D01*
X148714286Y-33364286D01*
X151142857Y-32792857D02*
X151000000Y-32721429D01*
X150714286Y-32721429D01*
X150571429Y-32792857D01*
X150500000Y-32935714D01*
X150500000Y-33507143D01*
X150571429Y-33650000D01*
X150714286Y-33721429D01*
X151000000Y-33721429D01*
X151142857Y-33650000D01*
X151214286Y-33507143D01*
X151214286Y-33364286D01*
X150500000Y-33221429D01*
X152071429Y-32721429D02*
X151928571Y-32792857D01*
X151857143Y-32935714D01*
X151857143Y-34221429D01*
X153214285Y-32792857D02*
X153071428Y-32721429D01*
X152785714Y-32721429D01*
X152642857Y-32792857D01*
X152571428Y-32935714D01*
X152571428Y-33507143D01*
X152642857Y-33650000D01*
X152785714Y-33721429D01*
X153071428Y-33721429D01*
X153214285Y-33650000D01*
X153285714Y-33507143D01*
X153285714Y-33364286D01*
X152571428Y-33221429D01*
X153928571Y-32721429D02*
X153928571Y-34221429D01*
X154071428Y-33292857D02*
X154499999Y-32721429D01*
X154499999Y-33721429D02*
X153928571Y-33150000D01*
X154928571Y-33721429D02*
X155500000Y-33721429D01*
X155142857Y-34221429D02*
X155142857Y-32935714D01*
X155214285Y-32792857D01*
X155357143Y-32721429D01*
X155500000Y-32721429D01*
X156000000Y-32721429D02*
X156000000Y-33721429D01*
X156000000Y-33435714D02*
X156071428Y-33578571D01*
X156142857Y-33650000D01*
X156285714Y-33721429D01*
X156428571Y-33721429D01*
X157142857Y-32721429D02*
X156999999Y-32792857D01*
X156928571Y-32864286D01*
X156857142Y-33007143D01*
X156857142Y-33435714D01*
X156928571Y-33578571D01*
X156999999Y-33650000D01*
X157142857Y-33721429D01*
X157357142Y-33721429D01*
X157499999Y-33650000D01*
X157571428Y-33578571D01*
X157642857Y-33435714D01*
X157642857Y-33007143D01*
X157571428Y-32864286D01*
X157499999Y-32792857D01*
X157357142Y-32721429D01*
X157142857Y-32721429D01*
X158071428Y-33721429D02*
X158642857Y-33721429D01*
X158285714Y-34221429D02*
X158285714Y-32935714D01*
X158357142Y-32792857D01*
X158500000Y-32721429D01*
X158642857Y-32721429D01*
X159714285Y-32792857D02*
X159571428Y-32721429D01*
X159285714Y-32721429D01*
X159142857Y-32792857D01*
X159071428Y-32935714D01*
X159071428Y-33507143D01*
X159142857Y-33650000D01*
X159285714Y-33721429D01*
X159571428Y-33721429D01*
X159714285Y-33650000D01*
X159785714Y-33507143D01*
X159785714Y-33364286D01*
X159071428Y-33221429D01*
X160428571Y-32721429D02*
X160428571Y-34221429D01*
X161071428Y-32721429D02*
X161071428Y-33507143D01*
X160999999Y-33650000D01*
X160857142Y-33721429D01*
X160642857Y-33721429D01*
X160499999Y-33650000D01*
X160428571Y-33578571D01*
X161785714Y-33721429D02*
X161785714Y-32721429D01*
X161785714Y-33578571D02*
X161857142Y-33650000D01*
X162000000Y-33721429D01*
X162214285Y-33721429D01*
X162357142Y-33650000D01*
X162428571Y-33507143D01*
X162428571Y-32721429D01*
X163142857Y-32721429D02*
X163142857Y-33721429D01*
X163142857Y-34221429D02*
X163071428Y-34150000D01*
X163142857Y-34078571D01*
X163214285Y-34150000D01*
X163142857Y-34221429D01*
X163142857Y-34078571D01*
X163857143Y-32721429D02*
X163857143Y-34221429D01*
X164000000Y-33292857D02*
X164428571Y-32721429D01*
X164428571Y-33721429D02*
X163857143Y-33150000D01*
X165285715Y-32721429D02*
X165142857Y-32792857D01*
X165071429Y-32864286D01*
X165000000Y-33007143D01*
X165000000Y-33435714D01*
X165071429Y-33578571D01*
X165142857Y-33650000D01*
X165285715Y-33721429D01*
X165500000Y-33721429D01*
X165642857Y-33650000D01*
X165714286Y-33578571D01*
X165785715Y-33435714D01*
X165785715Y-33007143D01*
X165714286Y-32864286D01*
X165642857Y-32792857D01*
X165500000Y-32721429D01*
X165285715Y-32721429D01*
D12*
X140226051Y-110490000D02*
G75*
G03X140226051Y-110490000I-1796051J0D01*
G01*
X165626051Y-110490000D02*
G75*
G03X165626051Y-110490000I-1796051J0D01*
G01*
X165626051Y-58420000D02*
G75*
G03X165626051Y-58420000I-1796051J0D01*
G01*
X140226051Y-58420000D02*
G75*
G03X140226051Y-58420000I-1796051J0D01*
G01*
X135880000Y-55860000D02*
X165880000Y-55860000D01*
X165880000Y-55860000D02*
X166380000Y-55860000D01*
X166380000Y-55860000D02*
X166380000Y-112860000D01*
X166380000Y-112860000D02*
X135880000Y-112860000D01*
X135880000Y-112860000D02*
X135880000Y-55860000D01*
X151891905Y-85812381D02*
X151891905Y-86621905D01*
X151844286Y-86717143D01*
X151796667Y-86764762D01*
X151701429Y-86812381D01*
X151510952Y-86812381D01*
X151415714Y-86764762D01*
X151368095Y-86717143D01*
X151320476Y-86621905D01*
X151320476Y-85812381D01*
X150320476Y-86812381D02*
X150891905Y-86812381D01*
X150606191Y-86812381D02*
X150606191Y-85812381D01*
X150701429Y-85955238D01*
X150796667Y-86050476D01*
X150891905Y-86098095D01*
X163655238Y-101052381D02*
X163321905Y-102052381D01*
X162988571Y-101052381D01*
X162655238Y-102052381D02*
X162655238Y-101052381D01*
X162179048Y-102052381D02*
X162179048Y-101052381D01*
X161607619Y-102052381D01*
X161607619Y-101052381D01*
X162298095Y-98560000D02*
X162393333Y-98512381D01*
X162536190Y-98512381D01*
X162679048Y-98560000D01*
X162774286Y-98655238D01*
X162821905Y-98750476D01*
X162869524Y-98940952D01*
X162869524Y-99083810D01*
X162821905Y-99274286D01*
X162774286Y-99369524D01*
X162679048Y-99464762D01*
X162536190Y-99512381D01*
X162440952Y-99512381D01*
X162298095Y-99464762D01*
X162250476Y-99417143D01*
X162250476Y-99083810D01*
X162440952Y-99083810D01*
X163107619Y-96972381D02*
X163440953Y-96496190D01*
X163679048Y-96972381D02*
X163679048Y-95972381D01*
X163298095Y-95972381D01*
X163202857Y-96020000D01*
X163155238Y-96067619D01*
X163107619Y-96162857D01*
X163107619Y-96305714D01*
X163155238Y-96400952D01*
X163202857Y-96448571D01*
X163298095Y-96496190D01*
X163679048Y-96496190D01*
X162726667Y-96924762D02*
X162583810Y-96972381D01*
X162345714Y-96972381D01*
X162250476Y-96924762D01*
X162202857Y-96877143D01*
X162155238Y-96781905D01*
X162155238Y-96686667D01*
X162202857Y-96591429D01*
X162250476Y-96543810D01*
X162345714Y-96496190D01*
X162536191Y-96448571D01*
X162631429Y-96400952D01*
X162679048Y-96353333D01*
X162726667Y-96258095D01*
X162726667Y-96162857D01*
X162679048Y-96067619D01*
X162631429Y-96020000D01*
X162536191Y-95972381D01*
X162298095Y-95972381D01*
X162155238Y-96020000D01*
X161869524Y-95972381D02*
X161298095Y-95972381D01*
X161583810Y-96972381D02*
X161583810Y-95972381D01*
X163298095Y-93908571D02*
X162964761Y-93908571D01*
X162821904Y-94432381D02*
X163298095Y-94432381D01*
X163298095Y-93432381D01*
X162821904Y-93432381D01*
X162393333Y-94432381D02*
X162393333Y-93432381D01*
X161821904Y-94432381D01*
X161821904Y-93432381D01*
X163321905Y-90892381D02*
X162702857Y-90892381D01*
X163036191Y-91273333D01*
X162893333Y-91273333D01*
X162798095Y-91320952D01*
X162750476Y-91368571D01*
X162702857Y-91463810D01*
X162702857Y-91701905D01*
X162750476Y-91797143D01*
X162798095Y-91844762D01*
X162893333Y-91892381D01*
X163179048Y-91892381D01*
X163274286Y-91844762D01*
X163321905Y-91797143D01*
X162417143Y-90892381D02*
X162083810Y-91892381D01*
X161750476Y-90892381D01*
X162298095Y-88400000D02*
X162393333Y-88352381D01*
X162536190Y-88352381D01*
X162679048Y-88400000D01*
X162774286Y-88495238D01*
X162821905Y-88590476D01*
X162869524Y-88780952D01*
X162869524Y-88923810D01*
X162821905Y-89114286D01*
X162774286Y-89209524D01*
X162679048Y-89304762D01*
X162536190Y-89352381D01*
X162440952Y-89352381D01*
X162298095Y-89304762D01*
X162250476Y-89257143D01*
X162250476Y-88923810D01*
X162440952Y-88923810D01*
X163345714Y-86764762D02*
X163202857Y-86812381D01*
X162964761Y-86812381D01*
X162869523Y-86764762D01*
X162821904Y-86717143D01*
X162774285Y-86621905D01*
X162774285Y-86526667D01*
X162821904Y-86431429D01*
X162869523Y-86383810D01*
X162964761Y-86336190D01*
X163155238Y-86288571D01*
X163250476Y-86240952D01*
X163298095Y-86193333D01*
X163345714Y-86098095D01*
X163345714Y-86002857D01*
X163298095Y-85907619D01*
X163250476Y-85860000D01*
X163155238Y-85812381D01*
X162917142Y-85812381D01*
X162774285Y-85860000D01*
X162345714Y-86812381D02*
X162345714Y-85812381D01*
X161774285Y-86812381D02*
X162202857Y-86240952D01*
X161774285Y-85812381D02*
X162345714Y-86383810D01*
X163369524Y-84224762D02*
X163226667Y-84272381D01*
X162988571Y-84272381D01*
X162893333Y-84224762D01*
X162845714Y-84177143D01*
X162798095Y-84081905D01*
X162798095Y-83986667D01*
X162845714Y-83891429D01*
X162893333Y-83843810D01*
X162988571Y-83796190D01*
X163179048Y-83748571D01*
X163274286Y-83700952D01*
X163321905Y-83653333D01*
X163369524Y-83558095D01*
X163369524Y-83462857D01*
X163321905Y-83367619D01*
X163274286Y-83320000D01*
X163179048Y-83272381D01*
X162940952Y-83272381D01*
X162798095Y-83320000D01*
X162179048Y-83272381D02*
X161988571Y-83272381D01*
X161893333Y-83320000D01*
X161798095Y-83415238D01*
X161750476Y-83605714D01*
X161750476Y-83939048D01*
X161798095Y-84129524D01*
X161893333Y-84224762D01*
X161988571Y-84272381D01*
X162179048Y-84272381D01*
X162274286Y-84224762D01*
X162369524Y-84129524D01*
X162417143Y-83939048D01*
X162417143Y-83605714D01*
X162369524Y-83415238D01*
X162274286Y-83320000D01*
X162179048Y-83272381D01*
X163345714Y-81684762D02*
X163202857Y-81732381D01*
X162964761Y-81732381D01*
X162869523Y-81684762D01*
X162821904Y-81637143D01*
X162774285Y-81541905D01*
X162774285Y-81446667D01*
X162821904Y-81351429D01*
X162869523Y-81303810D01*
X162964761Y-81256190D01*
X163155238Y-81208571D01*
X163250476Y-81160952D01*
X163298095Y-81113333D01*
X163345714Y-81018095D01*
X163345714Y-80922857D01*
X163298095Y-80827619D01*
X163250476Y-80780000D01*
X163155238Y-80732381D01*
X162917142Y-80732381D01*
X162774285Y-80780000D01*
X161774285Y-81637143D02*
X161821904Y-81684762D01*
X161964761Y-81732381D01*
X162059999Y-81732381D01*
X162202857Y-81684762D01*
X162298095Y-81589524D01*
X162345714Y-81494286D01*
X162393333Y-81303810D01*
X162393333Y-81160952D01*
X162345714Y-80970476D01*
X162298095Y-80875238D01*
X162202857Y-80780000D01*
X162059999Y-80732381D01*
X161964761Y-80732381D01*
X161821904Y-80780000D01*
X161774285Y-80827619D01*
X163321905Y-79144762D02*
X163179048Y-79192381D01*
X162940952Y-79192381D01*
X162845714Y-79144762D01*
X162798095Y-79097143D01*
X162750476Y-79001905D01*
X162750476Y-78906667D01*
X162798095Y-78811429D01*
X162845714Y-78763810D01*
X162940952Y-78716190D01*
X163131429Y-78668571D01*
X163226667Y-78620952D01*
X163274286Y-78573333D01*
X163321905Y-78478095D01*
X163321905Y-78382857D01*
X163274286Y-78287619D01*
X163226667Y-78240000D01*
X163131429Y-78192381D01*
X162893333Y-78192381D01*
X162750476Y-78240000D01*
X161798095Y-79192381D02*
X162369524Y-79192381D01*
X162083810Y-79192381D02*
X162083810Y-78192381D01*
X162179048Y-78335238D01*
X162274286Y-78430476D01*
X162369524Y-78478095D01*
X163321905Y-76604762D02*
X163179048Y-76652381D01*
X162940952Y-76652381D01*
X162845714Y-76604762D01*
X162798095Y-76557143D01*
X162750476Y-76461905D01*
X162750476Y-76366667D01*
X162798095Y-76271429D01*
X162845714Y-76223810D01*
X162940952Y-76176190D01*
X163131429Y-76128571D01*
X163226667Y-76080952D01*
X163274286Y-76033333D01*
X163321905Y-75938095D01*
X163321905Y-75842857D01*
X163274286Y-75747619D01*
X163226667Y-75700000D01*
X163131429Y-75652381D01*
X162893333Y-75652381D01*
X162750476Y-75700000D01*
X162369524Y-75747619D02*
X162321905Y-75700000D01*
X162226667Y-75652381D01*
X161988571Y-75652381D01*
X161893333Y-75700000D01*
X161845714Y-75747619D01*
X161798095Y-75842857D01*
X161798095Y-75938095D01*
X161845714Y-76080952D01*
X162417143Y-76652381D01*
X161798095Y-76652381D01*
X163321905Y-74064762D02*
X163179048Y-74112381D01*
X162940952Y-74112381D01*
X162845714Y-74064762D01*
X162798095Y-74017143D01*
X162750476Y-73921905D01*
X162750476Y-73826667D01*
X162798095Y-73731429D01*
X162845714Y-73683810D01*
X162940952Y-73636190D01*
X163131429Y-73588571D01*
X163226667Y-73540952D01*
X163274286Y-73493333D01*
X163321905Y-73398095D01*
X163321905Y-73302857D01*
X163274286Y-73207619D01*
X163226667Y-73160000D01*
X163131429Y-73112381D01*
X162893333Y-73112381D01*
X162750476Y-73160000D01*
X162417143Y-73112381D02*
X161798095Y-73112381D01*
X162131429Y-73493333D01*
X161988571Y-73493333D01*
X161893333Y-73540952D01*
X161845714Y-73588571D01*
X161798095Y-73683810D01*
X161798095Y-73921905D01*
X161845714Y-74017143D01*
X161893333Y-74064762D01*
X161988571Y-74112381D01*
X162274286Y-74112381D01*
X162369524Y-74064762D01*
X162417143Y-74017143D01*
X163417143Y-70572381D02*
X163083810Y-71572381D01*
X162750476Y-70572381D01*
X162417143Y-70572381D02*
X162417143Y-71381905D01*
X162369524Y-71477143D01*
X162321905Y-71524762D01*
X162226667Y-71572381D01*
X162036190Y-71572381D01*
X161940952Y-71524762D01*
X161893333Y-71477143D01*
X161845714Y-71381905D01*
X161845714Y-70572381D01*
X162298095Y-68080000D02*
X162393333Y-68032381D01*
X162536190Y-68032381D01*
X162679048Y-68080000D01*
X162774286Y-68175238D01*
X162821905Y-68270476D01*
X162869524Y-68460952D01*
X162869524Y-68603810D01*
X162821905Y-68794286D01*
X162774286Y-68889524D01*
X162679048Y-68984762D01*
X162536190Y-69032381D01*
X162440952Y-69032381D01*
X162298095Y-68984762D01*
X162250476Y-68937143D01*
X162250476Y-68603810D01*
X162440952Y-68603810D01*
X163274286Y-66206667D02*
X162798095Y-66206667D01*
X163369524Y-66492381D02*
X163036191Y-65492381D01*
X162702857Y-66492381D01*
X162179048Y-65492381D02*
X162083809Y-65492381D01*
X161988571Y-65540000D01*
X161940952Y-65587619D01*
X161893333Y-65682857D01*
X161845714Y-65873333D01*
X161845714Y-66111429D01*
X161893333Y-66301905D01*
X161940952Y-66397143D01*
X161988571Y-66444762D01*
X162083809Y-66492381D01*
X162179048Y-66492381D01*
X162274286Y-66444762D01*
X162321905Y-66397143D01*
X162369524Y-66301905D01*
X162417143Y-66111429D01*
X162417143Y-65873333D01*
X162369524Y-65682857D01*
X162321905Y-65587619D01*
X162274286Y-65540000D01*
X162179048Y-65492381D01*
X140461905Y-101052381D02*
X139842857Y-101052381D01*
X140176191Y-101433333D01*
X140033333Y-101433333D01*
X139938095Y-101480952D01*
X139890476Y-101528571D01*
X139842857Y-101623810D01*
X139842857Y-101861905D01*
X139890476Y-101957143D01*
X139938095Y-102004762D01*
X140033333Y-102052381D01*
X140319048Y-102052381D01*
X140414286Y-102004762D01*
X140461905Y-101957143D01*
X139557143Y-101052381D02*
X139223810Y-102052381D01*
X138890476Y-101052381D01*
X139438095Y-98560000D02*
X139533333Y-98512381D01*
X139676190Y-98512381D01*
X139819048Y-98560000D01*
X139914286Y-98655238D01*
X139961905Y-98750476D01*
X140009524Y-98940952D01*
X140009524Y-99083810D01*
X139961905Y-99274286D01*
X139914286Y-99369524D01*
X139819048Y-99464762D01*
X139676190Y-99512381D01*
X139580952Y-99512381D01*
X139438095Y-99464762D01*
X139390476Y-99417143D01*
X139390476Y-99083810D01*
X139580952Y-99083810D01*
X140461905Y-95972381D02*
X139890476Y-95972381D01*
X140176191Y-96972381D02*
X140176191Y-95972381D01*
X139652381Y-95972381D02*
X138985714Y-96972381D01*
X138985714Y-95972381D02*
X139652381Y-96972381D01*
X139866666Y-94432381D02*
X140200000Y-93956190D01*
X140438095Y-94432381D02*
X140438095Y-93432381D01*
X140057142Y-93432381D01*
X139961904Y-93480000D01*
X139914285Y-93527619D01*
X139866666Y-93622857D01*
X139866666Y-93765714D01*
X139914285Y-93860952D01*
X139961904Y-93908571D01*
X140057142Y-93956190D01*
X140438095Y-93956190D01*
X139533333Y-93432381D02*
X138866666Y-94432381D01*
X138866666Y-93432381D02*
X139533333Y-94432381D01*
X140438095Y-91892381D02*
X140438095Y-90892381D01*
X140200000Y-90892381D01*
X140057142Y-90940000D01*
X139961904Y-91035238D01*
X139914285Y-91130476D01*
X139866666Y-91320952D01*
X139866666Y-91463810D01*
X139914285Y-91654286D01*
X139961904Y-91749524D01*
X140057142Y-91844762D01*
X140200000Y-91892381D01*
X140438095Y-91892381D01*
X139295238Y-91320952D02*
X139390476Y-91273333D01*
X139438095Y-91225714D01*
X139485714Y-91130476D01*
X139485714Y-91082857D01*
X139438095Y-90987619D01*
X139390476Y-90940000D01*
X139295238Y-90892381D01*
X139104761Y-90892381D01*
X139009523Y-90940000D01*
X138961904Y-90987619D01*
X138914285Y-91082857D01*
X138914285Y-91130476D01*
X138961904Y-91225714D01*
X139009523Y-91273333D01*
X139104761Y-91320952D01*
X139295238Y-91320952D01*
X139390476Y-91368571D01*
X139438095Y-91416190D01*
X139485714Y-91511429D01*
X139485714Y-91701905D01*
X139438095Y-91797143D01*
X139390476Y-91844762D01*
X139295238Y-91892381D01*
X139104761Y-91892381D01*
X139009523Y-91844762D01*
X138961904Y-91797143D01*
X138914285Y-91701905D01*
X138914285Y-91511429D01*
X138961904Y-91416190D01*
X139009523Y-91368571D01*
X139104761Y-91320952D01*
X140438095Y-89352381D02*
X140438095Y-88352381D01*
X140200000Y-88352381D01*
X140057142Y-88400000D01*
X139961904Y-88495238D01*
X139914285Y-88590476D01*
X139866666Y-88780952D01*
X139866666Y-88923810D01*
X139914285Y-89114286D01*
X139961904Y-89209524D01*
X140057142Y-89304762D01*
X140200000Y-89352381D01*
X140438095Y-89352381D01*
X139533333Y-88352381D02*
X138866666Y-88352381D01*
X139295238Y-89352381D01*
X140438095Y-86812381D02*
X140438095Y-85812381D01*
X140200000Y-85812381D01*
X140057142Y-85860000D01*
X139961904Y-85955238D01*
X139914285Y-86050476D01*
X139866666Y-86240952D01*
X139866666Y-86383810D01*
X139914285Y-86574286D01*
X139961904Y-86669524D01*
X140057142Y-86764762D01*
X140200000Y-86812381D01*
X140438095Y-86812381D01*
X139009523Y-85812381D02*
X139200000Y-85812381D01*
X139295238Y-85860000D01*
X139342857Y-85907619D01*
X139438095Y-86050476D01*
X139485714Y-86240952D01*
X139485714Y-86621905D01*
X139438095Y-86717143D01*
X139390476Y-86764762D01*
X139295238Y-86812381D01*
X139104761Y-86812381D01*
X139009523Y-86764762D01*
X138961904Y-86717143D01*
X138914285Y-86621905D01*
X138914285Y-86383810D01*
X138961904Y-86288571D01*
X139009523Y-86240952D01*
X139104761Y-86193333D01*
X139295238Y-86193333D01*
X139390476Y-86240952D01*
X139438095Y-86288571D01*
X139485714Y-86383810D01*
X140438095Y-84272381D02*
X140438095Y-83272381D01*
X140200000Y-83272381D01*
X140057142Y-83320000D01*
X139961904Y-83415238D01*
X139914285Y-83510476D01*
X139866666Y-83700952D01*
X139866666Y-83843810D01*
X139914285Y-84034286D01*
X139961904Y-84129524D01*
X140057142Y-84224762D01*
X140200000Y-84272381D01*
X140438095Y-84272381D01*
X138961904Y-83272381D02*
X139438095Y-83272381D01*
X139485714Y-83748571D01*
X139438095Y-83700952D01*
X139342857Y-83653333D01*
X139104761Y-83653333D01*
X139009523Y-83700952D01*
X138961904Y-83748571D01*
X138914285Y-83843810D01*
X138914285Y-84081905D01*
X138961904Y-84177143D01*
X139009523Y-84224762D01*
X139104761Y-84272381D01*
X139342857Y-84272381D01*
X139438095Y-84224762D01*
X139485714Y-84177143D01*
X139438095Y-80780000D02*
X139533333Y-80732381D01*
X139676190Y-80732381D01*
X139819048Y-80780000D01*
X139914286Y-80875238D01*
X139961905Y-80970476D01*
X140009524Y-81160952D01*
X140009524Y-81303810D01*
X139961905Y-81494286D01*
X139914286Y-81589524D01*
X139819048Y-81684762D01*
X139676190Y-81732381D01*
X139580952Y-81732381D01*
X139438095Y-81684762D01*
X139390476Y-81637143D01*
X139390476Y-81303810D01*
X139580952Y-81303810D01*
X140461905Y-78192381D02*
X139842857Y-78192381D01*
X140176191Y-78573333D01*
X140033333Y-78573333D01*
X139938095Y-78620952D01*
X139890476Y-78668571D01*
X139842857Y-78763810D01*
X139842857Y-79001905D01*
X139890476Y-79097143D01*
X139938095Y-79144762D01*
X140033333Y-79192381D01*
X140319048Y-79192381D01*
X140414286Y-79144762D01*
X140461905Y-79097143D01*
X139557143Y-78192381D02*
X139223810Y-79192381D01*
X138890476Y-78192381D01*
X140438095Y-76652381D02*
X140438095Y-75652381D01*
X140200000Y-75652381D01*
X140057142Y-75700000D01*
X139961904Y-75795238D01*
X139914285Y-75890476D01*
X139866666Y-76080952D01*
X139866666Y-76223810D01*
X139914285Y-76414286D01*
X139961904Y-76509524D01*
X140057142Y-76604762D01*
X140200000Y-76652381D01*
X140438095Y-76652381D01*
X139009523Y-75985714D02*
X139009523Y-76652381D01*
X139247619Y-75604762D02*
X139485714Y-76319048D01*
X138866666Y-76319048D01*
X140438095Y-74112381D02*
X140438095Y-73112381D01*
X140200000Y-73112381D01*
X140057142Y-73160000D01*
X139961904Y-73255238D01*
X139914285Y-73350476D01*
X139866666Y-73540952D01*
X139866666Y-73683810D01*
X139914285Y-73874286D01*
X139961904Y-73969524D01*
X140057142Y-74064762D01*
X140200000Y-74112381D01*
X140438095Y-74112381D01*
X139533333Y-73112381D02*
X138914285Y-73112381D01*
X139247619Y-73493333D01*
X139104761Y-73493333D01*
X139009523Y-73540952D01*
X138961904Y-73588571D01*
X138914285Y-73683810D01*
X138914285Y-73921905D01*
X138961904Y-74017143D01*
X139009523Y-74064762D01*
X139104761Y-74112381D01*
X139390476Y-74112381D01*
X139485714Y-74064762D01*
X139533333Y-74017143D01*
X140438095Y-71572381D02*
X140438095Y-70572381D01*
X140200000Y-70572381D01*
X140057142Y-70620000D01*
X139961904Y-70715238D01*
X139914285Y-70810476D01*
X139866666Y-71000952D01*
X139866666Y-71143810D01*
X139914285Y-71334286D01*
X139961904Y-71429524D01*
X140057142Y-71524762D01*
X140200000Y-71572381D01*
X140438095Y-71572381D01*
X139485714Y-70667619D02*
X139438095Y-70620000D01*
X139342857Y-70572381D01*
X139104761Y-70572381D01*
X139009523Y-70620000D01*
X138961904Y-70667619D01*
X138914285Y-70762857D01*
X138914285Y-70858095D01*
X138961904Y-71000952D01*
X139533333Y-71572381D01*
X138914285Y-71572381D01*
X140438095Y-69032381D02*
X140438095Y-68032381D01*
X140200000Y-68032381D01*
X140057142Y-68080000D01*
X139961904Y-68175238D01*
X139914285Y-68270476D01*
X139866666Y-68460952D01*
X139866666Y-68603810D01*
X139914285Y-68794286D01*
X139961904Y-68889524D01*
X140057142Y-68984762D01*
X140200000Y-69032381D01*
X140438095Y-69032381D01*
X138914285Y-69032381D02*
X139485714Y-69032381D01*
X139200000Y-69032381D02*
X139200000Y-68032381D01*
X139295238Y-68175238D01*
X139390476Y-68270476D01*
X139485714Y-68318095D01*
X140438095Y-66492381D02*
X140438095Y-65492381D01*
X140200000Y-65492381D01*
X140057142Y-65540000D01*
X139961904Y-65635238D01*
X139914285Y-65730476D01*
X139866666Y-65920952D01*
X139866666Y-66063810D01*
X139914285Y-66254286D01*
X139961904Y-66349524D01*
X140057142Y-66444762D01*
X140200000Y-66492381D01*
X140438095Y-66492381D01*
X139247619Y-65492381D02*
X139152380Y-65492381D01*
X139057142Y-65540000D01*
X139009523Y-65587619D01*
X138961904Y-65682857D01*
X138914285Y-65873333D01*
X138914285Y-66111429D01*
X138961904Y-66301905D01*
X139009523Y-66397143D01*
X139057142Y-66444762D01*
X139152380Y-66492381D01*
X139247619Y-66492381D01*
X139342857Y-66444762D01*
X139390476Y-66397143D01*
X139438095Y-66301905D01*
X139485714Y-66111429D01*
X139485714Y-65873333D01*
X139438095Y-65682857D01*
X139390476Y-65587619D01*
X139342857Y-65540000D01*
X139247619Y-65492381D01*
D13*
G36*
X174873000Y-42373000D02*
X145127000Y-42373000D01*
X145127000Y-38627000D01*
X174873000Y-38627000D01*
X174873000Y-42373000D01*
X174873000Y-42373000D01*
G37*
X174873000Y-42373000D02*
X145127000Y-42373000D01*
X145127000Y-38627000D01*
X174873000Y-38627000D01*
X174873000Y-42373000D01*
%LPC*%
D14*
X163830000Y-60960000D03*
X163830000Y-50800000D03*
D15*
X165100000Y-66040000D03*
X165100000Y-68580000D03*
X165100000Y-71120000D03*
X165100000Y-73660000D03*
X165100000Y-76200000D03*
X165100000Y-78740000D03*
X165100000Y-81280000D03*
X165100000Y-83820000D03*
X165100000Y-86360000D03*
X165100000Y-88900000D03*
X165100000Y-91440000D03*
X165100000Y-93980000D03*
X165100000Y-96520000D03*
X165100000Y-99060000D03*
X165100000Y-101600000D03*
X137160000Y-101600000D03*
X137160000Y-99060000D03*
X137160000Y-96520000D03*
X137160000Y-93980000D03*
X137160000Y-91440000D03*
X137160000Y-88900000D03*
X137160000Y-86360000D03*
X137160000Y-83820000D03*
X137160000Y-81280000D03*
X137160000Y-78740000D03*
X137160000Y-76200000D03*
X137160000Y-73660000D03*
X137160000Y-71120000D03*
X137160000Y-68580000D03*
X137160000Y-66040000D03*
D14*
X168500000Y-64580000D03*
X168500000Y-54420000D03*
D16*
X133000000Y-50600000D03*
X133000000Y-58000000D03*
X133000000Y-109400000D03*
X133000000Y-102000000D03*
D17*
X160500000Y-84000000D03*
D18*
X155500000Y-84000000D03*
D14*
X172500000Y-54420000D03*
X172500000Y-64580000D03*
D19*
X163100000Y-110490000D03*
X161100000Y-110490000D03*
X165100000Y-110490000D03*
D20*
X167200000Y-110490000D03*
X159000000Y-110490000D03*
D21*
X153670000Y-72390000D03*
X153670000Y-74930000D03*
X153670000Y-77470000D03*
X153670000Y-80010000D03*
X161290000Y-80010000D03*
X161290000Y-77470000D03*
X161290000Y-74930000D03*
X161290000Y-72390000D03*
D15*
X166370000Y-46990000D03*
D22*
X156210000Y-46990000D03*
D14*
X142240000Y-46990000D03*
X152400000Y-46990000D03*
X147580000Y-61000000D03*
X137420000Y-61000000D03*
D23*
X140500000Y-110490000D03*
D24*
X143040000Y-110490000D03*
D23*
X168500000Y-73000000D03*
D24*
X168500000Y-70460000D03*
D17*
X158500000Y-103000000D03*
D18*
X156000000Y-103000000D03*
D17*
X149000000Y-80000000D03*
D18*
X146500000Y-80000000D03*
D17*
X142240000Y-50800000D03*
D18*
X142240000Y-55800000D03*
D17*
X158115000Y-99695000D03*
D18*
X158115000Y-97195000D03*
D17*
X148590000Y-76200000D03*
D18*
X148590000Y-73700000D03*
D14*
X168500000Y-86500000D03*
X168500000Y-76340000D03*
D25*
X142500000Y-99500000D03*
X142500000Y-96960000D03*
X142500000Y-94420000D03*
X142500000Y-91880000D03*
X142500000Y-89340000D03*
X142500000Y-86800000D03*
X142500000Y-84260000D03*
X142500000Y-81720000D03*
X142500000Y-79180000D03*
X142500000Y-76640000D03*
X142500000Y-74100000D03*
X142500000Y-71560000D03*
X142500000Y-69020000D03*
X142500000Y-66480000D03*
D26*
X142500000Y-104999100D03*
X173500700Y-104999100D03*
X173500700Y-30000520D03*
X142500000Y-30000520D03*
D20*
X162000000Y-43500000D03*
X159460000Y-43500000D03*
X164540000Y-43500000D03*
M02*
