G04 #@! TF.FileFunction,Legend,Top*
%FSLAX46Y46*%
G04 Gerber Fmt 4.6, Leading zero omitted, Abs format (unit mm)*
G04 Created by KiCad (PCBNEW 4.0.2+dfsg1-stable) date Thu 25 May 2017 10:32:05 AM CEST*
%MOMM*%
G01*
G04 APERTURE LIST*
%ADD10C,0.100000*%
%ADD11C,0.150000*%
%ADD12C,1.998980*%
%ADD13C,2.000000*%
%ADD14O,3.800000X3.800000*%
%ADD15R,1.300000X1.300000*%
%ADD16C,1.300000*%
%ADD17O,1.000000X1.600000*%
%ADD18C,1.524000*%
%ADD19O,2.300000X1.600000*%
%ADD20R,2.000000X2.000000*%
%ADD21R,3.657600X2.032000*%
%ADD22R,1.016000X2.032000*%
%ADD23R,2.032000X2.032000*%
%ADD24O,2.032000X2.032000*%
%ADD25R,1.651000X3.048000*%
%ADD26R,6.096000X6.096000*%
%ADD27R,3.500120X2.349500*%
%ADD28O,2.600000X1.800000*%
%ADD29C,3.000000*%
G04 APERTURE END LIST*
D10*
D11*
X162560000Y-58420000D02*
X162560000Y-53340000D01*
X162560000Y-53340000D02*
X165100000Y-53340000D01*
X165100000Y-53340000D02*
X165100000Y-58420000D01*
X165100000Y-58420000D02*
X162560000Y-58420000D01*
X163830000Y-58420000D02*
X163830000Y-59690000D01*
X163830000Y-53340000D02*
X163830000Y-52070000D01*
X167230000Y-62040000D02*
X167230000Y-56960000D01*
X167230000Y-56960000D02*
X169770000Y-56960000D01*
X169770000Y-56960000D02*
X169770000Y-62040000D01*
X169770000Y-62040000D02*
X167230000Y-62040000D01*
X168500000Y-62040000D02*
X168500000Y-63310000D01*
X168500000Y-56960000D02*
X168500000Y-55690000D01*
X138000000Y-112600000D02*
X138000000Y-46600000D01*
X128000000Y-112600000D02*
X138000000Y-112600000D01*
X128000000Y-46600000D02*
X128000000Y-112600000D01*
X138000000Y-46600000D02*
X128000000Y-46600000D01*
X161500000Y-85000000D02*
X154500000Y-85000000D01*
X154500000Y-85000000D02*
X154500000Y-83000000D01*
X154500000Y-83000000D02*
X161500000Y-83000000D01*
X161500000Y-83000000D02*
X161500000Y-85000000D01*
X173770000Y-56960000D02*
X173770000Y-62040000D01*
X173770000Y-62040000D02*
X171230000Y-62040000D01*
X171230000Y-62040000D02*
X171230000Y-56960000D01*
X171230000Y-56960000D02*
X173770000Y-56960000D01*
X172500000Y-56960000D02*
X172500000Y-55690000D01*
X172500000Y-62040000D02*
X172500000Y-63310000D01*
X158800000Y-112690000D02*
X167400000Y-112690000D01*
X158800000Y-108290000D02*
X167400000Y-108290000D01*
X153805000Y-70095000D02*
X153805000Y-71365000D01*
X161155000Y-70095000D02*
X161155000Y-71365000D01*
X161155000Y-82305000D02*
X161155000Y-81035000D01*
X153805000Y-82305000D02*
X153805000Y-81035000D01*
X153805000Y-70095000D02*
X161155000Y-70095000D01*
X153805000Y-82305000D02*
X161155000Y-82305000D01*
X153805000Y-71365000D02*
X152520000Y-71365000D01*
X163576000Y-46990000D02*
X164973000Y-46990000D01*
X159131000Y-46990000D02*
X157607000Y-46990000D01*
X159512000Y-46228000D02*
X159512000Y-47752000D01*
X159258000Y-46228000D02*
X159258000Y-47752000D01*
X159004000Y-46990000D02*
X159004000Y-47752000D01*
X159004000Y-47752000D02*
X163576000Y-47752000D01*
X163576000Y-47752000D02*
X163576000Y-46228000D01*
X163576000Y-46228000D02*
X159004000Y-46228000D01*
X159004000Y-46228000D02*
X159004000Y-46990000D01*
X144780000Y-45720000D02*
X149860000Y-45720000D01*
X149860000Y-45720000D02*
X149860000Y-48260000D01*
X149860000Y-48260000D02*
X144780000Y-48260000D01*
X144780000Y-48260000D02*
X144780000Y-45720000D01*
X144780000Y-46990000D02*
X143510000Y-46990000D01*
X149860000Y-46990000D02*
X151130000Y-46990000D01*
X145040000Y-62270000D02*
X139960000Y-62270000D01*
X139960000Y-62270000D02*
X139960000Y-59730000D01*
X139960000Y-59730000D02*
X145040000Y-59730000D01*
X145040000Y-59730000D02*
X145040000Y-62270000D01*
X145040000Y-61000000D02*
X146310000Y-61000000D01*
X139960000Y-61000000D02*
X138690000Y-61000000D01*
X146304000Y-99949000D02*
X146304000Y-102997000D01*
X146304000Y-102997000D02*
X153416000Y-102997000D01*
X153416000Y-102997000D02*
X153416000Y-99949000D01*
X146304000Y-96901000D02*
X146304000Y-96139000D01*
X146304000Y-96139000D02*
X147828000Y-93853000D01*
X147828000Y-93853000D02*
X151892000Y-93853000D01*
X151892000Y-93853000D02*
X153416000Y-96139000D01*
X153416000Y-96139000D02*
X153416000Y-96901000D01*
X141770000Y-109220000D02*
X144310000Y-109220000D01*
X138950000Y-108940000D02*
X140500000Y-108940000D01*
X141770000Y-109220000D02*
X141770000Y-111760000D01*
X140500000Y-112040000D02*
X138950000Y-112040000D01*
X138950000Y-112040000D02*
X138950000Y-108940000D01*
X141770000Y-111760000D02*
X144310000Y-111760000D01*
X144310000Y-111760000D02*
X144310000Y-109220000D01*
X167230000Y-71730000D02*
X167230000Y-69190000D01*
X166950000Y-74550000D02*
X166950000Y-73000000D01*
X167230000Y-71730000D02*
X169770000Y-71730000D01*
X170050000Y-73000000D02*
X170050000Y-74550000D01*
X170050000Y-74550000D02*
X166950000Y-74550000D01*
X169770000Y-71730000D02*
X169770000Y-69190000D01*
X169770000Y-69190000D02*
X167230000Y-69190000D01*
X156083000Y-52324000D02*
X156083000Y-49149000D01*
X156083000Y-49149000D02*
X154305000Y-49149000D01*
X154305000Y-49149000D02*
X154305000Y-52324000D01*
X160655000Y-52324000D02*
X160655000Y-49149000D01*
X160655000Y-49149000D02*
X158877000Y-49149000D01*
X158877000Y-49149000D02*
X158877000Y-52324000D01*
X154051000Y-58420000D02*
X154051000Y-52324000D01*
X154051000Y-52324000D02*
X160909000Y-52324000D01*
X160909000Y-52324000D02*
X160909000Y-60198000D01*
X160909000Y-60325000D02*
X154051000Y-60325000D01*
X154051000Y-60198000D02*
X154051000Y-58420000D01*
X147459700Y-49540160D02*
X146560540Y-49540160D01*
X152260300Y-57139840D02*
X153159460Y-57139840D01*
X153159460Y-57139840D02*
X153159460Y-49540160D01*
X153159460Y-49540160D02*
X152260300Y-49540160D01*
X146560540Y-49540160D02*
X146560540Y-57139840D01*
X146560540Y-57139840D02*
X147459700Y-57139840D01*
X158750000Y-104250000D02*
X155750000Y-104250000D01*
X155750000Y-101750000D02*
X158750000Y-101750000D01*
X149250000Y-81250000D02*
X146250000Y-81250000D01*
X146250000Y-78750000D02*
X149250000Y-78750000D01*
X145240000Y-49800000D02*
X145240000Y-56800000D01*
X145240000Y-56800000D02*
X139240000Y-56800000D01*
X139240000Y-56800000D02*
X139240000Y-49800000D01*
X139240000Y-49800000D02*
X145240000Y-49800000D01*
X155616000Y-98370000D02*
X160614000Y-98370000D01*
X155624000Y-98230000D02*
X160606000Y-98230000D01*
X155640000Y-98090000D02*
X158020000Y-98090000D01*
X158210000Y-98090000D02*
X160590000Y-98090000D01*
X155664000Y-97950000D02*
X157625000Y-97950000D01*
X158605000Y-97950000D02*
X160566000Y-97950000D01*
X155697000Y-97810000D02*
X157458000Y-97810000D01*
X158772000Y-97810000D02*
X160533000Y-97810000D01*
X155738000Y-97670000D02*
X157351000Y-97670000D01*
X158879000Y-97670000D02*
X160492000Y-97670000D01*
X155788000Y-97530000D02*
X157280000Y-97530000D01*
X158950000Y-97530000D02*
X160442000Y-97530000D01*
X155849000Y-97390000D02*
X157236000Y-97390000D01*
X158994000Y-97390000D02*
X160381000Y-97390000D01*
X155919000Y-97250000D02*
X157217000Y-97250000D01*
X159013000Y-97250000D02*
X160311000Y-97250000D01*
X156001000Y-97110000D02*
X157219000Y-97110000D01*
X159011000Y-97110000D02*
X160229000Y-97110000D01*
X156096000Y-96970000D02*
X157244000Y-96970000D01*
X158986000Y-96970000D02*
X160134000Y-96970000D01*
X156207000Y-96830000D02*
X157292000Y-96830000D01*
X158938000Y-96830000D02*
X160023000Y-96830000D01*
X156335000Y-96690000D02*
X157370000Y-96690000D01*
X158860000Y-96690000D02*
X159895000Y-96690000D01*
X156484000Y-96550000D02*
X157487000Y-96550000D01*
X158743000Y-96550000D02*
X159746000Y-96550000D01*
X156663000Y-96410000D02*
X157675000Y-96410000D01*
X158555000Y-96410000D02*
X159567000Y-96410000D01*
X156882000Y-96270000D02*
X159348000Y-96270000D01*
X157171000Y-96130000D02*
X159059000Y-96130000D01*
X157643000Y-95990000D02*
X158587000Y-95990000D01*
X159015000Y-97195000D02*
G75*
G03X159015000Y-97195000I-900000J0D01*
G01*
X160652500Y-98445000D02*
G75*
G03X160652500Y-98445000I-2537500J0D01*
G01*
X146091000Y-74875000D02*
X151089000Y-74875000D01*
X146099000Y-74735000D02*
X151081000Y-74735000D01*
X146115000Y-74595000D02*
X148495000Y-74595000D01*
X148685000Y-74595000D02*
X151065000Y-74595000D01*
X146139000Y-74455000D02*
X148100000Y-74455000D01*
X149080000Y-74455000D02*
X151041000Y-74455000D01*
X146172000Y-74315000D02*
X147933000Y-74315000D01*
X149247000Y-74315000D02*
X151008000Y-74315000D01*
X146213000Y-74175000D02*
X147826000Y-74175000D01*
X149354000Y-74175000D02*
X150967000Y-74175000D01*
X146263000Y-74035000D02*
X147755000Y-74035000D01*
X149425000Y-74035000D02*
X150917000Y-74035000D01*
X146324000Y-73895000D02*
X147711000Y-73895000D01*
X149469000Y-73895000D02*
X150856000Y-73895000D01*
X146394000Y-73755000D02*
X147692000Y-73755000D01*
X149488000Y-73755000D02*
X150786000Y-73755000D01*
X146476000Y-73615000D02*
X147694000Y-73615000D01*
X149486000Y-73615000D02*
X150704000Y-73615000D01*
X146571000Y-73475000D02*
X147719000Y-73475000D01*
X149461000Y-73475000D02*
X150609000Y-73475000D01*
X146682000Y-73335000D02*
X147767000Y-73335000D01*
X149413000Y-73335000D02*
X150498000Y-73335000D01*
X146810000Y-73195000D02*
X147845000Y-73195000D01*
X149335000Y-73195000D02*
X150370000Y-73195000D01*
X146959000Y-73055000D02*
X147962000Y-73055000D01*
X149218000Y-73055000D02*
X150221000Y-73055000D01*
X147138000Y-72915000D02*
X148150000Y-72915000D01*
X149030000Y-72915000D02*
X150042000Y-72915000D01*
X147357000Y-72775000D02*
X149823000Y-72775000D01*
X147646000Y-72635000D02*
X149534000Y-72635000D01*
X148118000Y-72495000D02*
X149062000Y-72495000D01*
X149490000Y-73700000D02*
G75*
G03X149490000Y-73700000I-900000J0D01*
G01*
X151127500Y-74950000D02*
G75*
G03X151127500Y-74950000I-2537500J0D01*
G01*
X167230000Y-83960000D02*
X167230000Y-78880000D01*
X167230000Y-78880000D02*
X169770000Y-78880000D01*
X169770000Y-78880000D02*
X169770000Y-83960000D01*
X169770000Y-83960000D02*
X167230000Y-83960000D01*
X168500000Y-83960000D02*
X168500000Y-85230000D01*
X168500000Y-78880000D02*
X168500000Y-77610000D01*
X150501000Y-99299340D02*
X150501000Y-35799340D01*
X164999320Y-99799720D02*
X150998840Y-99799720D01*
X165499700Y-35799340D02*
X165499700Y-99299340D01*
X150998840Y-35298960D02*
X164999320Y-35298960D01*
X150998840Y-35301500D02*
G75*
G03X150501000Y-35799340I0J-497840D01*
G01*
X165499700Y-35799340D02*
G75*
G03X164999320Y-35298960I-500380J0D01*
G01*
X164999320Y-99799720D02*
G75*
G03X165499700Y-99299340I0J500380D01*
G01*
X150498460Y-99299340D02*
G75*
G03X150998840Y-99799720I500380J0D01*
G01*
X145400680Y-104099940D02*
X145400680Y-30899680D01*
X145400680Y-30899680D02*
X170800680Y-30899680D01*
X170800680Y-30899680D02*
X170800680Y-104099940D01*
X170800680Y-104099940D02*
X145400680Y-104099940D01*
X144999360Y-30000520D02*
G75*
G03X144999360Y-30000520I-2499360J0D01*
G01*
X176000060Y-30000520D02*
G75*
G03X176000060Y-30000520I-2499360J0D01*
G01*
X176002600Y-104999100D02*
G75*
G03X176002600Y-104999100I-2501900J0D01*
G01*
X144999360Y-104999100D02*
G75*
G03X144999360Y-104999100I-2499360J0D01*
G01*
X140000640Y-107501000D02*
X140000640Y-27501160D01*
X140000640Y-27501160D02*
X176000060Y-27501160D01*
X176000060Y-27501160D02*
X176000060Y-107501000D01*
X176000060Y-107501000D02*
X140000640Y-107501000D01*
X165556000Y-45532000D02*
X165556000Y-44262000D01*
X164768600Y-44782700D02*
X164806700Y-45036700D01*
X164806700Y-45036700D02*
X164984500Y-45316100D01*
X164984500Y-45316100D02*
X165302000Y-45532000D01*
X165302000Y-45532000D02*
X165746500Y-45544700D01*
X165746500Y-45544700D02*
X166102100Y-45341500D01*
X166102100Y-45341500D02*
X166279900Y-45049400D01*
X166279900Y-45049400D02*
X166330700Y-44731900D01*
X166330700Y-44731900D02*
X166229100Y-44325500D01*
X166229100Y-44325500D02*
X165886200Y-44071500D01*
X165886200Y-44071500D02*
X165708400Y-43982600D01*
X157174000Y-41722000D02*
X166826000Y-41722000D01*
X166826000Y-44770000D02*
X166826000Y-46040000D01*
X166826000Y-46040000D02*
X157174000Y-46040000D01*
X157174000Y-46040000D02*
X157174000Y-40960000D01*
X166826000Y-40960000D02*
X166826000Y-43500000D01*
X166826000Y-43500000D02*
X166826000Y-44770000D01*
X162452381Y-59666666D02*
X161976190Y-60000000D01*
X162452381Y-60238095D02*
X161452381Y-60238095D01*
X161452381Y-59857142D01*
X161500000Y-59761904D01*
X161547619Y-59714285D01*
X161642857Y-59666666D01*
X161785714Y-59666666D01*
X161880952Y-59714285D01*
X161928571Y-59761904D01*
X161976190Y-59857142D01*
X161976190Y-60238095D01*
X161452381Y-58761904D02*
X161452381Y-59238095D01*
X161928571Y-59285714D01*
X161880952Y-59238095D01*
X161833333Y-59142857D01*
X161833333Y-58904761D01*
X161880952Y-58809523D01*
X161928571Y-58761904D01*
X162023810Y-58714285D01*
X162261905Y-58714285D01*
X162357143Y-58761904D01*
X162404762Y-58809523D01*
X162452381Y-58904761D01*
X162452381Y-59142857D01*
X162404762Y-59238095D01*
X162357143Y-59285714D01*
X166952381Y-63166666D02*
X166476190Y-63500000D01*
X166952381Y-63738095D02*
X165952381Y-63738095D01*
X165952381Y-63357142D01*
X166000000Y-63261904D01*
X166047619Y-63214285D01*
X166142857Y-63166666D01*
X166285714Y-63166666D01*
X166380952Y-63214285D01*
X166428571Y-63261904D01*
X166476190Y-63357142D01*
X166476190Y-63738095D01*
X165952381Y-62833333D02*
X165952381Y-62214285D01*
X166333333Y-62547619D01*
X166333333Y-62404761D01*
X166380952Y-62309523D01*
X166428571Y-62261904D01*
X166523810Y-62214285D01*
X166761905Y-62214285D01*
X166857143Y-62261904D01*
X166904762Y-62309523D01*
X166952381Y-62404761D01*
X166952381Y-62690476D01*
X166904762Y-62785714D01*
X166857143Y-62833333D01*
X129678571Y-50107142D02*
X128178571Y-50107142D01*
X128178571Y-49535714D01*
X128250000Y-49392856D01*
X128321429Y-49321428D01*
X128464286Y-49249999D01*
X128678571Y-49249999D01*
X128821429Y-49321428D01*
X128892857Y-49392856D01*
X128964286Y-49535714D01*
X128964286Y-50107142D01*
X128178571Y-48749999D02*
X128178571Y-47749999D01*
X129678571Y-48392856D01*
X154833334Y-86357143D02*
X154785715Y-86404762D01*
X154642858Y-86452381D01*
X154547620Y-86452381D01*
X154404762Y-86404762D01*
X154309524Y-86309524D01*
X154261905Y-86214286D01*
X154214286Y-86023810D01*
X154214286Y-85880952D01*
X154261905Y-85690476D01*
X154309524Y-85595238D01*
X154404762Y-85500000D01*
X154547620Y-85452381D01*
X154642858Y-85452381D01*
X154785715Y-85500000D01*
X154833334Y-85547619D01*
X155404762Y-85880952D02*
X155309524Y-85833333D01*
X155261905Y-85785714D01*
X155214286Y-85690476D01*
X155214286Y-85642857D01*
X155261905Y-85547619D01*
X155309524Y-85500000D01*
X155404762Y-85452381D01*
X155595239Y-85452381D01*
X155690477Y-85500000D01*
X155738096Y-85547619D01*
X155785715Y-85642857D01*
X155785715Y-85690476D01*
X155738096Y-85785714D01*
X155690477Y-85833333D01*
X155595239Y-85880952D01*
X155404762Y-85880952D01*
X155309524Y-85928571D01*
X155261905Y-85976190D01*
X155214286Y-86071429D01*
X155214286Y-86261905D01*
X155261905Y-86357143D01*
X155309524Y-86404762D01*
X155404762Y-86452381D01*
X155595239Y-86452381D01*
X155690477Y-86404762D01*
X155738096Y-86357143D01*
X155785715Y-86261905D01*
X155785715Y-86071429D01*
X155738096Y-85976190D01*
X155690477Y-85928571D01*
X155595239Y-85880952D01*
X170952381Y-63666666D02*
X170476190Y-64000000D01*
X170952381Y-64238095D02*
X169952381Y-64238095D01*
X169952381Y-63857142D01*
X170000000Y-63761904D01*
X170047619Y-63714285D01*
X170142857Y-63666666D01*
X170285714Y-63666666D01*
X170380952Y-63714285D01*
X170428571Y-63761904D01*
X170476190Y-63857142D01*
X170476190Y-64238095D01*
X170285714Y-62809523D02*
X170952381Y-62809523D01*
X169904762Y-63047619D02*
X170619048Y-63285714D01*
X170619048Y-62666666D01*
X165036667Y-107084762D02*
X165179524Y-107132381D01*
X165417620Y-107132381D01*
X165512858Y-107084762D01*
X165560477Y-107037143D01*
X165608096Y-106941905D01*
X165608096Y-106846667D01*
X165560477Y-106751429D01*
X165512858Y-106703810D01*
X165417620Y-106656190D01*
X165227143Y-106608571D01*
X165131905Y-106560952D01*
X165084286Y-106513333D01*
X165036667Y-106418095D01*
X165036667Y-106322857D01*
X165084286Y-106227619D01*
X165131905Y-106180000D01*
X165227143Y-106132381D01*
X165465239Y-106132381D01*
X165608096Y-106180000D01*
X165941429Y-106132381D02*
X166179524Y-107132381D01*
X166370001Y-106418095D01*
X166560477Y-107132381D01*
X166798572Y-106132381D01*
X167703334Y-107132381D02*
X167131905Y-107132381D01*
X167417619Y-107132381D02*
X167417619Y-106132381D01*
X167322381Y-106275238D01*
X167227143Y-106370476D01*
X167131905Y-106418095D01*
X152738095Y-68452381D02*
X152738095Y-69261905D01*
X152785714Y-69357143D01*
X152833333Y-69404762D01*
X152928571Y-69452381D01*
X153119048Y-69452381D01*
X153214286Y-69404762D01*
X153261905Y-69357143D01*
X153309524Y-69261905D01*
X153309524Y-68452381D01*
X154214286Y-68785714D02*
X154214286Y-69452381D01*
X153976190Y-68404762D02*
X153738095Y-69119048D01*
X154357143Y-69119048D01*
X156761905Y-45452381D02*
X156761905Y-44452381D01*
X157000000Y-44452381D01*
X157142858Y-44500000D01*
X157238096Y-44595238D01*
X157285715Y-44690476D01*
X157333334Y-44880952D01*
X157333334Y-45023810D01*
X157285715Y-45214286D01*
X157238096Y-45309524D01*
X157142858Y-45404762D01*
X157000000Y-45452381D01*
X156761905Y-45452381D01*
X158285715Y-45452381D02*
X157714286Y-45452381D01*
X158000000Y-45452381D02*
X158000000Y-44452381D01*
X157904762Y-44595238D01*
X157809524Y-44690476D01*
X157714286Y-44738095D01*
X144333334Y-44952381D02*
X144000000Y-44476190D01*
X143761905Y-44952381D02*
X143761905Y-43952381D01*
X144142858Y-43952381D01*
X144238096Y-44000000D01*
X144285715Y-44047619D01*
X144333334Y-44142857D01*
X144333334Y-44285714D01*
X144285715Y-44380952D01*
X144238096Y-44428571D01*
X144142858Y-44476190D01*
X143761905Y-44476190D01*
X145285715Y-44952381D02*
X144714286Y-44952381D01*
X145000000Y-44952381D02*
X145000000Y-43952381D01*
X144904762Y-44095238D01*
X144809524Y-44190476D01*
X144714286Y-44238095D01*
X138523334Y-59452381D02*
X138190000Y-58976190D01*
X137951905Y-59452381D02*
X137951905Y-58452381D01*
X138332858Y-58452381D01*
X138428096Y-58500000D01*
X138475715Y-58547619D01*
X138523334Y-58642857D01*
X138523334Y-58785714D01*
X138475715Y-58880952D01*
X138428096Y-58928571D01*
X138332858Y-58976190D01*
X137951905Y-58976190D01*
X138904286Y-58547619D02*
X138951905Y-58500000D01*
X139047143Y-58452381D01*
X139285239Y-58452381D01*
X139380477Y-58500000D01*
X139428096Y-58547619D01*
X139475715Y-58642857D01*
X139475715Y-58738095D01*
X139428096Y-58880952D01*
X138856667Y-59452381D01*
X139475715Y-59452381D01*
X149098095Y-92162381D02*
X149098095Y-92971905D01*
X149145714Y-93067143D01*
X149193333Y-93114762D01*
X149288571Y-93162381D01*
X149479048Y-93162381D01*
X149574286Y-93114762D01*
X149621905Y-93067143D01*
X149669524Y-92971905D01*
X149669524Y-92162381D01*
X150050476Y-92162381D02*
X150669524Y-92162381D01*
X150336190Y-92543333D01*
X150479048Y-92543333D01*
X150574286Y-92590952D01*
X150621905Y-92638571D01*
X150669524Y-92733810D01*
X150669524Y-92971905D01*
X150621905Y-93067143D01*
X150574286Y-93114762D01*
X150479048Y-93162381D01*
X150193333Y-93162381D01*
X150098095Y-93114762D01*
X150050476Y-93067143D01*
X145508571Y-111704285D02*
X145556190Y-111561428D01*
X145603810Y-111513809D01*
X145699048Y-111466190D01*
X145841905Y-111466190D01*
X145937143Y-111513809D01*
X145984762Y-111561428D01*
X146032381Y-111656666D01*
X146032381Y-112037619D01*
X145032381Y-112037619D01*
X145032381Y-111704285D01*
X145080000Y-111609047D01*
X145127619Y-111561428D01*
X145222857Y-111513809D01*
X145318095Y-111513809D01*
X145413333Y-111561428D01*
X145460952Y-111609047D01*
X145508571Y-111704285D01*
X145508571Y-112037619D01*
X145746667Y-111085238D02*
X145746667Y-110609047D01*
X146032381Y-111180476D02*
X145032381Y-110847143D01*
X146032381Y-110513809D01*
X145032381Y-110323333D02*
X145032381Y-109751904D01*
X146032381Y-110037619D02*
X145032381Y-110037619D01*
X146032381Y-108894761D02*
X146032381Y-109466190D01*
X146032381Y-109180476D02*
X145032381Y-109180476D01*
X145175238Y-109275714D01*
X145270476Y-109370952D01*
X145318095Y-109466190D01*
X171904762Y-73833333D02*
X171952381Y-73690476D01*
X171952381Y-73452380D01*
X171904762Y-73357142D01*
X171857143Y-73309523D01*
X171761905Y-73261904D01*
X171666667Y-73261904D01*
X171571429Y-73309523D01*
X171523810Y-73357142D01*
X171476190Y-73452380D01*
X171428571Y-73642857D01*
X171380952Y-73738095D01*
X171333333Y-73785714D01*
X171238095Y-73833333D01*
X171142857Y-73833333D01*
X171047619Y-73785714D01*
X171000000Y-73738095D01*
X170952381Y-73642857D01*
X170952381Y-73404761D01*
X171000000Y-73261904D01*
X170952381Y-72928571D02*
X171952381Y-72690476D01*
X171238095Y-72499999D01*
X171952381Y-72309523D01*
X170952381Y-72071428D01*
X171047619Y-71738095D02*
X171000000Y-71690476D01*
X170952381Y-71595238D01*
X170952381Y-71357142D01*
X171000000Y-71261904D01*
X171047619Y-71214285D01*
X171142857Y-71166666D01*
X171238095Y-71166666D01*
X171380952Y-71214285D01*
X171952381Y-71785714D01*
X171952381Y-71166666D01*
X157384762Y-61761619D02*
X157289524Y-61714000D01*
X157194286Y-61618762D01*
X157051429Y-61475905D01*
X156956190Y-61428286D01*
X156860952Y-61428286D01*
X156908571Y-61666381D02*
X156813333Y-61618762D01*
X156718095Y-61523524D01*
X156670476Y-61333048D01*
X156670476Y-60999714D01*
X156718095Y-60809238D01*
X156813333Y-60714000D01*
X156908571Y-60666381D01*
X157099048Y-60666381D01*
X157194286Y-60714000D01*
X157289524Y-60809238D01*
X157337143Y-60999714D01*
X157337143Y-61333048D01*
X157289524Y-61523524D01*
X157194286Y-61618762D01*
X157099048Y-61666381D01*
X156908571Y-61666381D01*
X158289524Y-61666381D02*
X157718095Y-61666381D01*
X158003809Y-61666381D02*
X158003809Y-60666381D01*
X157908571Y-60809238D01*
X157813333Y-60904476D01*
X157718095Y-60952095D01*
X149833334Y-58952381D02*
X149357143Y-58952381D01*
X149357143Y-57952381D01*
X150690477Y-58952381D02*
X150119048Y-58952381D01*
X150404762Y-58952381D02*
X150404762Y-57952381D01*
X150309524Y-58095238D01*
X150214286Y-58190476D01*
X150119048Y-58238095D01*
X155833334Y-105857143D02*
X155785715Y-105904762D01*
X155642858Y-105952381D01*
X155547620Y-105952381D01*
X155404762Y-105904762D01*
X155309524Y-105809524D01*
X155261905Y-105714286D01*
X155214286Y-105523810D01*
X155214286Y-105380952D01*
X155261905Y-105190476D01*
X155309524Y-105095238D01*
X155404762Y-105000000D01*
X155547620Y-104952381D01*
X155642858Y-104952381D01*
X155785715Y-105000000D01*
X155833334Y-105047619D01*
X156690477Y-104952381D02*
X156500000Y-104952381D01*
X156404762Y-105000000D01*
X156357143Y-105047619D01*
X156261905Y-105190476D01*
X156214286Y-105380952D01*
X156214286Y-105761905D01*
X156261905Y-105857143D01*
X156309524Y-105904762D01*
X156404762Y-105952381D01*
X156595239Y-105952381D01*
X156690477Y-105904762D01*
X156738096Y-105857143D01*
X156785715Y-105761905D01*
X156785715Y-105523810D01*
X156738096Y-105428571D01*
X156690477Y-105380952D01*
X156595239Y-105333333D01*
X156404762Y-105333333D01*
X156309524Y-105380952D01*
X156261905Y-105428571D01*
X156214286Y-105523810D01*
X148833334Y-82357143D02*
X148785715Y-82404762D01*
X148642858Y-82452381D01*
X148547620Y-82452381D01*
X148404762Y-82404762D01*
X148309524Y-82309524D01*
X148261905Y-82214286D01*
X148214286Y-82023810D01*
X148214286Y-81880952D01*
X148261905Y-81690476D01*
X148309524Y-81595238D01*
X148404762Y-81500000D01*
X148547620Y-81452381D01*
X148642858Y-81452381D01*
X148785715Y-81500000D01*
X148833334Y-81547619D01*
X149214286Y-81547619D02*
X149261905Y-81500000D01*
X149357143Y-81452381D01*
X149595239Y-81452381D01*
X149690477Y-81500000D01*
X149738096Y-81547619D01*
X149785715Y-81642857D01*
X149785715Y-81738095D01*
X149738096Y-81880952D01*
X149166667Y-82452381D01*
X149785715Y-82452381D01*
X139333334Y-48857143D02*
X139285715Y-48904762D01*
X139142858Y-48952381D01*
X139047620Y-48952381D01*
X138904762Y-48904762D01*
X138809524Y-48809524D01*
X138761905Y-48714286D01*
X138714286Y-48523810D01*
X138714286Y-48380952D01*
X138761905Y-48190476D01*
X138809524Y-48095238D01*
X138904762Y-48000000D01*
X139047620Y-47952381D01*
X139142858Y-47952381D01*
X139285715Y-48000000D01*
X139333334Y-48047619D01*
X140285715Y-48952381D02*
X139714286Y-48952381D01*
X140000000Y-48952381D02*
X140000000Y-47952381D01*
X139904762Y-48095238D01*
X139809524Y-48190476D01*
X139714286Y-48238095D01*
X160357143Y-95857143D02*
X160309524Y-95904762D01*
X160166667Y-95952381D01*
X160071429Y-95952381D01*
X159928571Y-95904762D01*
X159833333Y-95809524D01*
X159785714Y-95714286D01*
X159738095Y-95523810D01*
X159738095Y-95380952D01*
X159785714Y-95190476D01*
X159833333Y-95095238D01*
X159928571Y-95000000D01*
X160071429Y-94952381D01*
X160166667Y-94952381D01*
X160309524Y-95000000D01*
X160357143Y-95047619D01*
X161309524Y-95952381D02*
X160738095Y-95952381D01*
X161023809Y-95952381D02*
X161023809Y-94952381D01*
X160928571Y-95095238D01*
X160833333Y-95190476D01*
X160738095Y-95238095D01*
X162261905Y-95952381D02*
X161690476Y-95952381D01*
X161976190Y-95952381D02*
X161976190Y-94952381D01*
X161880952Y-95095238D01*
X161785714Y-95190476D01*
X161690476Y-95238095D01*
X150833334Y-78357143D02*
X150785715Y-78404762D01*
X150642858Y-78452381D01*
X150547620Y-78452381D01*
X150404762Y-78404762D01*
X150309524Y-78309524D01*
X150261905Y-78214286D01*
X150214286Y-78023810D01*
X150214286Y-77880952D01*
X150261905Y-77690476D01*
X150309524Y-77595238D01*
X150404762Y-77500000D01*
X150547620Y-77452381D01*
X150642858Y-77452381D01*
X150785715Y-77500000D01*
X150833334Y-77547619D01*
X151309524Y-78452381D02*
X151500000Y-78452381D01*
X151595239Y-78404762D01*
X151642858Y-78357143D01*
X151738096Y-78214286D01*
X151785715Y-78023810D01*
X151785715Y-77642857D01*
X151738096Y-77547619D01*
X151690477Y-77500000D01*
X151595239Y-77452381D01*
X151404762Y-77452381D01*
X151309524Y-77500000D01*
X151261905Y-77547619D01*
X151214286Y-77642857D01*
X151214286Y-77880952D01*
X151261905Y-77976190D01*
X151309524Y-78023810D01*
X151404762Y-78071429D01*
X151595239Y-78071429D01*
X151690477Y-78023810D01*
X151738096Y-77976190D01*
X151785715Y-77880952D01*
X171952381Y-85166666D02*
X171476190Y-85500000D01*
X171952381Y-85738095D02*
X170952381Y-85738095D01*
X170952381Y-85357142D01*
X171000000Y-85261904D01*
X171047619Y-85214285D01*
X171142857Y-85166666D01*
X171285714Y-85166666D01*
X171380952Y-85214285D01*
X171428571Y-85261904D01*
X171476190Y-85357142D01*
X171476190Y-85738095D01*
X170952381Y-84309523D02*
X170952381Y-84500000D01*
X171000000Y-84595238D01*
X171047619Y-84642857D01*
X171190476Y-84738095D01*
X171380952Y-84785714D01*
X171761905Y-84785714D01*
X171857143Y-84738095D01*
X171904762Y-84690476D01*
X171952381Y-84595238D01*
X171952381Y-84404761D01*
X171904762Y-84309523D01*
X171857143Y-84261904D01*
X171761905Y-84214285D01*
X171523810Y-84214285D01*
X171428571Y-84261904D01*
X171380952Y-84309523D01*
X171333333Y-84404761D01*
X171333333Y-84595238D01*
X171380952Y-84690476D01*
X171428571Y-84738095D01*
X171523810Y-84785714D01*
X140452381Y-100214286D02*
X139452381Y-100214286D01*
X139452381Y-99976191D01*
X139500000Y-99833333D01*
X139595238Y-99738095D01*
X139690476Y-99690476D01*
X139880952Y-99642857D01*
X140023810Y-99642857D01*
X140214286Y-99690476D01*
X140309524Y-99738095D01*
X140404762Y-99833333D01*
X140452381Y-99976191D01*
X140452381Y-100214286D01*
X140404762Y-99261905D02*
X140452381Y-99119048D01*
X140452381Y-98880952D01*
X140404762Y-98785714D01*
X140357143Y-98738095D01*
X140261905Y-98690476D01*
X140166667Y-98690476D01*
X140071429Y-98738095D01*
X140023810Y-98785714D01*
X139976190Y-98880952D01*
X139928571Y-99071429D01*
X139880952Y-99166667D01*
X139833333Y-99214286D01*
X139738095Y-99261905D01*
X139642857Y-99261905D01*
X139547619Y-99214286D01*
X139500000Y-99166667D01*
X139452381Y-99071429D01*
X139452381Y-98833333D01*
X139500000Y-98690476D01*
X140452381Y-97738095D02*
X140452381Y-98309524D01*
X140452381Y-98023810D02*
X139452381Y-98023810D01*
X139595238Y-98119048D01*
X139690476Y-98214286D01*
X139738095Y-98309524D01*
X155952381Y-45119048D02*
X156952381Y-44785715D01*
X155952381Y-44452381D01*
X155952381Y-43928572D02*
X155952381Y-43738095D01*
X156000000Y-43642857D01*
X156095238Y-43547619D01*
X156285714Y-43500000D01*
X156619048Y-43500000D01*
X156809524Y-43547619D01*
X156904762Y-43642857D01*
X156952381Y-43738095D01*
X156952381Y-43928572D01*
X156904762Y-44023810D01*
X156809524Y-44119048D01*
X156619048Y-44166667D01*
X156285714Y-44166667D01*
X156095238Y-44119048D01*
X156000000Y-44023810D01*
X155952381Y-43928572D01*
X156952381Y-42595238D02*
X156952381Y-43071429D01*
X155952381Y-43071429D01*
X155952381Y-42404762D02*
X155952381Y-41833333D01*
X156952381Y-42119048D02*
X155952381Y-42119048D01*
X156952381Y-40976190D02*
X156952381Y-41547619D01*
X156952381Y-41261905D02*
X155952381Y-41261905D01*
X156095238Y-41357143D01*
X156190476Y-41452381D01*
X156238095Y-41547619D01*
%LPC*%
D12*
X163830000Y-60960000D03*
X163830000Y-50800000D03*
D13*
X165100000Y-66040000D03*
X165100000Y-68580000D03*
X165100000Y-71120000D03*
X165100000Y-73660000D03*
X165100000Y-76200000D03*
X165100000Y-78740000D03*
X165100000Y-81280000D03*
X165100000Y-83820000D03*
X165100000Y-86360000D03*
X165100000Y-88900000D03*
X165100000Y-91440000D03*
X165100000Y-93980000D03*
X165100000Y-96520000D03*
X165100000Y-99060000D03*
X165100000Y-101600000D03*
X137160000Y-101600000D03*
X137160000Y-99060000D03*
X137160000Y-96520000D03*
X137160000Y-93980000D03*
X137160000Y-91440000D03*
X137160000Y-88900000D03*
X137160000Y-86360000D03*
X137160000Y-83820000D03*
X137160000Y-81280000D03*
X137160000Y-78740000D03*
X137160000Y-76200000D03*
X137160000Y-73660000D03*
X137160000Y-71120000D03*
X137160000Y-68580000D03*
X137160000Y-66040000D03*
D12*
X168500000Y-64580000D03*
X168500000Y-54420000D03*
D14*
X133000000Y-50600000D03*
X133000000Y-58000000D03*
X133000000Y-109400000D03*
X133000000Y-102000000D03*
D15*
X160500000Y-84000000D03*
D16*
X155500000Y-84000000D03*
D12*
X172500000Y-54420000D03*
X172500000Y-64580000D03*
D17*
X163100000Y-110490000D03*
X161100000Y-110490000D03*
X165100000Y-110490000D03*
D18*
X167200000Y-110490000D03*
X159000000Y-110490000D03*
D19*
X153670000Y-72390000D03*
X153670000Y-74930000D03*
X153670000Y-77470000D03*
X153670000Y-80010000D03*
X161290000Y-80010000D03*
X161290000Y-77470000D03*
X161290000Y-74930000D03*
X161290000Y-72390000D03*
D13*
X166370000Y-46990000D03*
D20*
X156210000Y-46990000D03*
D12*
X142240000Y-46990000D03*
X152400000Y-46990000D03*
X147580000Y-61000000D03*
X137420000Y-61000000D03*
D21*
X149860000Y-95123000D03*
D22*
X149860000Y-101727000D03*
X152146000Y-101727000D03*
X147574000Y-101727000D03*
D23*
X140500000Y-110490000D03*
D24*
X143040000Y-110490000D03*
D23*
X168500000Y-73000000D03*
D24*
X168500000Y-70460000D03*
D25*
X159766000Y-50800000D03*
D26*
X157480000Y-57150000D03*
D25*
X155194000Y-50800000D03*
D27*
X149860000Y-56365140D03*
X149860000Y-50314860D03*
D15*
X158500000Y-103000000D03*
D16*
X156000000Y-103000000D03*
D15*
X149000000Y-80000000D03*
D16*
X146500000Y-80000000D03*
D15*
X142240000Y-50800000D03*
D16*
X142240000Y-55800000D03*
D15*
X158115000Y-99695000D03*
D16*
X158115000Y-97195000D03*
D15*
X148590000Y-76200000D03*
D16*
X148590000Y-73700000D03*
D12*
X168500000Y-86500000D03*
X168500000Y-76340000D03*
D28*
X142500000Y-99500000D03*
X142500000Y-96960000D03*
X142500000Y-94420000D03*
X142500000Y-91880000D03*
X142500000Y-89340000D03*
X142500000Y-86800000D03*
X142500000Y-84260000D03*
X142500000Y-81720000D03*
X142500000Y-79180000D03*
X142500000Y-76640000D03*
X142500000Y-74100000D03*
X142500000Y-71560000D03*
X142500000Y-69020000D03*
X142500000Y-66480000D03*
D29*
X142500000Y-104999100D03*
X173500700Y-104999100D03*
X173500700Y-30000520D03*
X142500000Y-30000520D03*
D18*
X162000000Y-43500000D03*
X159460000Y-43500000D03*
X164540000Y-43500000D03*
M02*
