G04 #@! TF.FileFunction,Soldermask,Top*
%FSLAX46Y46*%
G04 Gerber Fmt 4.6, Leading zero omitted, Abs format (unit mm)*
G04 Created by KiCad (PCBNEW 4.0.2+dfsg1-stable) date Thu 25 May 2017 10:32:05 AM CEST*
%MOMM*%
G01*
G04 APERTURE LIST*
%ADD10C,0.100000*%
%ADD11C,1.998980*%
%ADD12C,2.000000*%
%ADD13O,3.800000X3.800000*%
%ADD14R,1.300000X1.300000*%
%ADD15C,1.300000*%
%ADD16O,1.000000X1.600000*%
%ADD17C,1.524000*%
%ADD18O,2.300000X1.600000*%
%ADD19R,2.000000X2.000000*%
%ADD20R,3.657600X2.032000*%
%ADD21R,1.016000X2.032000*%
%ADD22R,2.032000X2.032000*%
%ADD23O,2.032000X2.032000*%
%ADD24R,1.651000X3.048000*%
%ADD25R,6.096000X6.096000*%
%ADD26R,3.500120X2.349500*%
%ADD27O,2.600000X1.800000*%
%ADD28C,3.000000*%
G04 APERTURE END LIST*
D10*
D11*
X163830000Y-60960000D03*
X163830000Y-50800000D03*
D12*
X165100000Y-66040000D03*
X165100000Y-68580000D03*
X165100000Y-71120000D03*
X165100000Y-73660000D03*
X165100000Y-76200000D03*
X165100000Y-78740000D03*
X165100000Y-81280000D03*
X165100000Y-83820000D03*
X165100000Y-86360000D03*
X165100000Y-88900000D03*
X165100000Y-91440000D03*
X165100000Y-93980000D03*
X165100000Y-96520000D03*
X165100000Y-99060000D03*
X165100000Y-101600000D03*
X137160000Y-101600000D03*
X137160000Y-99060000D03*
X137160000Y-96520000D03*
X137160000Y-93980000D03*
X137160000Y-91440000D03*
X137160000Y-88900000D03*
X137160000Y-86360000D03*
X137160000Y-83820000D03*
X137160000Y-81280000D03*
X137160000Y-78740000D03*
X137160000Y-76200000D03*
X137160000Y-73660000D03*
X137160000Y-71120000D03*
X137160000Y-68580000D03*
X137160000Y-66040000D03*
D11*
X168500000Y-64580000D03*
X168500000Y-54420000D03*
D13*
X133000000Y-50600000D03*
X133000000Y-58000000D03*
X133000000Y-109400000D03*
X133000000Y-102000000D03*
D14*
X160500000Y-84000000D03*
D15*
X155500000Y-84000000D03*
D11*
X172500000Y-54420000D03*
X172500000Y-64580000D03*
D16*
X163100000Y-110490000D03*
X161100000Y-110490000D03*
X165100000Y-110490000D03*
D17*
X167200000Y-110490000D03*
X159000000Y-110490000D03*
D18*
X153670000Y-72390000D03*
X153670000Y-74930000D03*
X153670000Y-77470000D03*
X153670000Y-80010000D03*
X161290000Y-80010000D03*
X161290000Y-77470000D03*
X161290000Y-74930000D03*
X161290000Y-72390000D03*
D12*
X166370000Y-46990000D03*
D19*
X156210000Y-46990000D03*
D11*
X142240000Y-46990000D03*
X152400000Y-46990000D03*
X147580000Y-61000000D03*
X137420000Y-61000000D03*
D20*
X149860000Y-95123000D03*
D21*
X149860000Y-101727000D03*
X152146000Y-101727000D03*
X147574000Y-101727000D03*
D22*
X140500000Y-110490000D03*
D23*
X143040000Y-110490000D03*
D22*
X168500000Y-73000000D03*
D23*
X168500000Y-70460000D03*
D24*
X159766000Y-50800000D03*
D25*
X157480000Y-57150000D03*
D24*
X155194000Y-50800000D03*
D26*
X149860000Y-56365140D03*
X149860000Y-50314860D03*
D14*
X158500000Y-103000000D03*
D15*
X156000000Y-103000000D03*
D14*
X149000000Y-80000000D03*
D15*
X146500000Y-80000000D03*
D14*
X142240000Y-50800000D03*
D15*
X142240000Y-55800000D03*
D14*
X158115000Y-99695000D03*
D15*
X158115000Y-97195000D03*
D14*
X148590000Y-76200000D03*
D15*
X148590000Y-73700000D03*
D11*
X168500000Y-86500000D03*
X168500000Y-76340000D03*
D27*
X142500000Y-99500000D03*
X142500000Y-96960000D03*
X142500000Y-94420000D03*
X142500000Y-91880000D03*
X142500000Y-89340000D03*
X142500000Y-86800000D03*
X142500000Y-84260000D03*
X142500000Y-81720000D03*
X142500000Y-79180000D03*
X142500000Y-76640000D03*
X142500000Y-74100000D03*
X142500000Y-71560000D03*
X142500000Y-69020000D03*
X142500000Y-66480000D03*
D28*
X142500000Y-104999100D03*
X173500700Y-104999100D03*
X173500700Y-30000520D03*
X142500000Y-30000520D03*
D17*
X162000000Y-43500000D03*
X159460000Y-43500000D03*
X164540000Y-43500000D03*
M02*
